<?xml version="1.0" encoding="utf-8"?>
<!-- Generator: Adobe Illustrator 24.0.1, SVG Export Plug-In . SVG Version: 6.00 Build 0)  -->
<svg version="1.1" id="Layer_1" xmlns="http://www.w3.org/2000/svg" xmlns:xlink="http://www.w3.org/1999/xlink" x="0px" y="0px"
	 viewBox="0 0 48 20" style="enable-background:new 0 0 48 20;" xml:space="preserve">
<style type="text/css">
	.st0{fill:#FFFFFF;}
	.st1{fill:#F68701;}
	.st2{fill:#003E37;}
</style>
<rect class="st0" width="48" height="20"/>
<g>
	<g>
		<path class="st1" d="M4.79,7.15c0.22,0.04,0.41,0.1,0.57,0.17C5.51,7.4,5.63,7.49,5.71,7.59c0.08,0.1,0.13,0.22,0.13,0.35
			c0,0.05-0.01,0.1-0.02,0.15C5.8,8.14,5.77,8.19,5.74,8.23C5.7,8.28,5.66,8.31,5.61,8.34C5.55,8.37,5.49,8.38,5.41,8.38
			c-0.07,0-0.13-0.01-0.18-0.02C5.18,8.34,5.13,8.32,5.08,8.3C5.02,8.28,4.96,8.25,4.9,8.22C4.84,8.19,4.76,8.16,4.68,8.14
			C4.59,8.12,4.49,8.1,4.37,8.08C4.25,8.07,4.12,8.06,3.96,8.06H3.9c-0.29,0-0.53,0.03-0.71,0.1C3.01,8.22,2.88,8.33,2.78,8.46
			C2.68,8.6,2.62,8.78,2.59,9C2.56,9.22,2.54,9.48,2.54,9.79v0.25c0,0.31,0.02,0.57,0.05,0.79c0.03,0.22,0.1,0.4,0.19,0.54
			c0.1,0.14,0.23,0.24,0.41,0.3c0.18,0.06,0.42,0.1,0.71,0.1h0.06c0.16,0,0.3-0.01,0.41-0.02c0.12-0.02,0.22-0.04,0.3-0.06
			c0.09-0.02,0.16-0.05,0.22-0.08c0.06-0.03,0.12-0.06,0.18-0.08c0.05-0.02,0.11-0.04,0.16-0.06c0.05-0.02,0.11-0.02,0.18-0.02
			c0.07,0,0.14,0.01,0.19,0.04c0.05,0.03,0.1,0.07,0.13,0.11c0.03,0.04,0.06,0.09,0.07,0.14c0.02,0.05,0.02,0.1,0.02,0.15
			c0,0.13-0.04,0.25-0.13,0.35c-0.08,0.1-0.2,0.19-0.36,0.27c-0.16,0.07-0.34,0.13-0.57,0.17c-0.22,0.04-0.47,0.06-0.74,0.06H3.91
			c-0.38,0-0.7-0.03-0.97-0.1s-0.5-0.16-0.68-0.28c-0.18-0.12-0.33-0.27-0.44-0.44c-0.11-0.17-0.19-0.36-0.25-0.57
			c-0.06-0.21-0.1-0.43-0.11-0.67c-0.02-0.24-0.03-0.48-0.03-0.74V9.9c0-0.25,0.01-0.5,0.03-0.74C1.46,8.92,1.5,8.7,1.56,8.49
			c0.06-0.21,0.14-0.4,0.25-0.57c0.11-0.17,0.26-0.32,0.44-0.44C2.44,7.36,2.66,7.27,2.94,7.2c0.27-0.07,0.6-0.1,0.97-0.1h0.14
			C4.32,7.09,4.57,7.11,4.79,7.15z"/>
	</g>
	<g>
		<path class="st1" d="M20.05,12.67c-0.08,0-0.15,0-0.22-0.01c-0.07-0.01-0.13-0.02-0.18-0.04c-0.05-0.02-0.09-0.05-0.12-0.09
			c-0.03-0.04-0.05-0.09-0.05-0.15v-0.17V12.2v-0.04V7.62V7.59c0-0.02,0-0.04,0-0.04c0.01-0.04,0.02-0.08,0.04-0.13
			c0.02-0.05,0.05-0.09,0.1-0.13c0.04-0.04,0.1-0.08,0.17-0.1c0.07-0.03,0.15-0.04,0.26-0.04h1.63h0.01h0.01
			c0.38,0,0.7,0.03,0.97,0.1c0.27,0.07,0.5,0.16,0.68,0.28s0.33,0.26,0.44,0.43C23.92,8.12,24,8.3,24.06,8.51
			c0.06,0.2,0.1,0.42,0.11,0.66C24.19,9.4,24.2,9.65,24.2,9.9v0.02c0,0.25-0.01,0.5-0.03,0.73c-0.02,0.23-0.06,0.45-0.11,0.66
			c-0.06,0.2-0.14,0.39-0.25,0.56c-0.11,0.17-0.26,0.31-0.44,0.43c-0.19,0.12-0.41,0.21-0.69,0.28c-0.27,0.07-0.6,0.1-0.98,0.1
			h-0.02H20.05z M21.68,8.11h-1.07v3.6c0.06,0,0.13,0,0.21,0c0.08,0,0.16,0,0.25,0c0.08,0,0.16,0,0.24,0c0.08,0,0.15,0,0.21,0
			c0.06,0,0.11,0,0.15,0c0.03,0,0.05,0,0.05,0h0.08c0.28-0.01,0.5-0.04,0.66-0.1c0.17-0.06,0.3-0.16,0.39-0.29
			c0.09-0.13,0.15-0.3,0.18-0.51c0.03-0.21,0.04-0.46,0.04-0.76V9.79c0-0.31-0.02-0.56-0.05-0.78C23,8.8,22.93,8.62,22.84,8.49
			S22.6,8.26,22.42,8.2c-0.18-0.06-0.42-0.09-0.71-0.09L21.68,8.11L21.68,8.11z"/>
	</g>
	<g>
		<path class="st1" d="M39.71,7.12L39.71,7.12c0.16,0,0.32,0.01,0.5,0.02c0.18,0.01,0.35,0.04,0.53,0.08
			c0.18,0.04,0.34,0.1,0.5,0.18c0.16,0.08,0.3,0.18,0.43,0.31c0.12,0.13,0.22,0.29,0.3,0.48c0.07,0.19,0.11,0.42,0.11,0.7v0.02
			c0,0.26-0.03,0.49-0.1,0.68c-0.07,0.19-0.16,0.35-0.27,0.48c-0.11,0.13-0.25,0.24-0.4,0.31s-0.31,0.14-0.48,0.18
			c-0.17,0.04-0.34,0.07-0.51,0.09c-0.17,0.02-0.34,0.02-0.5,0.02h-0.02h-0.99v1.75c0,0.06-0.02,0.11-0.05,0.15
			c-0.03,0.04-0.08,0.07-0.13,0.09c-0.05,0.02-0.11,0.03-0.18,0.04c-0.07,0.01-0.13,0.01-0.2,0.01c-0.08,0-0.15,0-0.22-0.01
			c-0.07-0.01-0.13-0.02-0.18-0.04c-0.05-0.02-0.09-0.05-0.12-0.09c-0.03-0.04-0.05-0.09-0.05-0.15V7.63V7.59V7.57
			c0-0.02,0-0.04,0-0.04c0.01-0.04,0.02-0.08,0.04-0.13c0.02-0.05,0.05-0.09,0.1-0.13c0.04-0.04,0.1-0.08,0.17-0.1
			c0.07-0.03,0.15-0.04,0.26-0.04H39.71z M38.79,9.7c0.06,0,0.13,0,0.21,0c0.08,0,0.16,0,0.24,0c0.08,0,0.17,0,0.25,0
			c0.08,0,0.16,0,0.22,0v0h0.03c0.26,0,0.47-0.02,0.63-0.05c0.16-0.03,0.28-0.08,0.36-0.15c0.08-0.06,0.14-0.14,0.17-0.24
			c0.03-0.09,0.04-0.2,0.04-0.33V8.85c0-0.12-0.02-0.23-0.04-0.32c-0.03-0.09-0.08-0.17-0.16-0.24c-0.08-0.07-0.19-0.12-0.34-0.15
			c-0.15-0.04-0.35-0.05-0.6-0.06c-0.02,0-0.04,0-0.06,0c-0.02,0-0.03,0-0.04,0h-0.92V9.7z"/>
	</g>
	<g>
		<g>
			<path class="st2" d="M11.07,7.38c-0.07,0-0.12-0.03-0.16-0.09c-1.65-2.7-4.26-5.91-7.25-5.91c-0.94,0-1.91,0.33-2.88,0.97
				C0.75,2.37,0.71,2.38,0.67,2.38c-0.07,0-0.13-0.03-0.16-0.09L0.38,2.05C0.33,1.97,0.36,1.87,0.43,1.81
				c1.1-0.77,2.19-1.17,3.23-1.17c3.13,0,5.94,3.45,7.75,6.35c0.03,0.04,0.03,0.09,0.02,0.14c-0.01,0.05-0.04,0.09-0.09,0.12
				l-0.18,0.1L11.07,7.38z"/>
			<path class="st2" d="M3.66,0.89c3.15,0,6.04,3.84,7.5,6.18L11.1,7.11C9.41,4.37,6.76,1.13,3.66,1.13c-0.98,0-1.99,0.33-2.96,0.98
				L0.63,1.98C1.67,1.26,2.69,0.89,3.66,0.89 M3.66,0.39c-1.19,0-2.32,0.48-3.37,1.21C0.11,1.74,0.05,1.99,0.16,2.18L0.3,2.41
				c0.08,0.14,0.23,0.22,0.38,0.22c0.08,0,0.17-0.02,0.24-0.07C1.78,1.99,2.7,1.63,3.66,1.63c2.94,0,5.53,3.33,7.04,5.79
				c0.08,0.13,0.22,0.21,0.37,0.21c0.07,0,0.15-0.02,0.22-0.06l0.18-0.1c0.21-0.12,0.28-0.4,0.15-0.6C9.88,4.06,6.96,0.39,3.66,0.39
				L3.66,0.39z"/>
		</g>
		<g>
			<path class="st2" d="M47.3,7.44c-0.07,0-0.12-0.03-0.16-0.09c-1.66-2.73-4.27-5.98-7.29-5.98c-3,0-5.61,3.24-7.27,5.95
				c-0.03,0.05-0.09,0.09-0.16,0.09l-0.28-0.13c-0.04-0.03-0.08-0.07-0.09-0.11c-0.01-0.05,0-0.1,0.02-0.14
				c1.81-2.92,4.63-6.39,7.77-6.39c3.15,0,5.97,3.49,7.79,6.41c0.03,0.04,0.03,0.09,0.02,0.14s-0.04,0.09-0.09,0.11l-0.18,0.1
				L47.3,7.44z"/>
			<path class="st2" d="M39.86,0.89c3.17,0,6.07,3.88,7.54,6.24l-0.07,0.04c-1.7-2.77-4.36-6.05-7.47-6.05
				c-3.1,0-5.76,3.26-7.45,6.02l-0.07-0.04C33.8,4.76,36.7,0.89,39.86,0.89 M39.86,0.39c-3.31,0-6.24,3.7-7.98,6.51
				c-0.13,0.21-0.06,0.48,0.15,0.6l0.18,0.1c0.07,0.04,0.14,0.06,0.22,0.06c0.15,0,0.29-0.07,0.37-0.21C34.3,5,36.9,1.63,39.86,1.63
				c2.96,0,5.57,3.39,7.07,5.86c0.08,0.13,0.22,0.21,0.37,0.21c0.07,0,0.15-0.02,0.22-0.06l0.18-0.1c0.21-0.12,0.28-0.39,0.15-0.6
				C46.11,4.12,43.18,0.39,39.86,0.39L39.86,0.39z"/>
		</g>
		<g>
			<path class="st2" d="M21.77,19.36c-3.18,0-6.03-3.55-7.86-6.53c-0.03-0.04-0.03-0.09-0.02-0.14c0.01-0.05,0.04-0.09,0.09-0.11
				l0.18-0.11c0.04-0.01,0.07-0.01,0.1-0.01c0.09,0,0.13,0.03,0.16,0.07c1.67,2.78,4.31,6.09,7.35,6.09c3.04,0,5.67-3.3,7.34-6.07
				c0.03-0.05,0.09-0.09,0.16-0.09l0.28,0.13c0.04,0.03,0.08,0.07,0.09,0.11c0.01,0.05,0,0.1-0.02,0.14
				C28.12,15.28,25.11,19.36,21.77,19.36z"/>
			<path class="st2" d="M14.24,12.72c1.71,2.82,4.4,6.15,7.53,6.15c3.13,0,5.82-3.32,7.52-6.13l0.07,0.04
				c-1.48,2.39-4.4,6.33-7.59,6.33c-3.2,0-6.12-3.95-7.6-6.35L14.24,12.72 M14.26,12.2c-0.07,0-0.15,0.02-0.22,0.06l-0.18,0.11
				c-0.21,0.12-0.28,0.39-0.15,0.6c1.73,2.82,4.7,6.64,8.07,6.64c3.36,0,6.32-3.81,8.06-6.63c0.13-0.21,0.06-0.48-0.15-0.6
				l-0.18-0.11c-0.07-0.04-0.14-0.06-0.22-0.06c-0.15,0-0.29,0.07-0.37,0.21c-1.49,2.47-4.13,5.95-7.13,5.95
				c-3.01,0-5.65-3.49-7.14-5.97C14.55,12.27,14.41,12.2,14.26,12.2L14.26,12.2z"/>
		</g>
		<g>
			<path class="st2" d="M39.88,19.36c-5.11,0-9.4-9.37-9.45-9.46c-0.03-0.08-3.8-8.52-8.66-8.52c-4.41,0-7.94,6.99-8.6,8.39
				l-0.2,0.44c-0.74,1.53-4.69,9.16-9.31,9.16c-1.07,0-2.2-0.42-3.34-1.24c-0.08-0.06-0.1-0.16-0.05-0.24l0.13-0.23
				c0.03-0.06,0.09-0.09,0.16-0.09c0.04,0,0.08,0.01,0.11,0.03c1.01,0.69,2.02,1.04,2.99,1.04c4.5,0,8.45-8.09,8.62-8.43
				c0.08-0.18,4.39-9.54,9.49-9.54c5.11,0,9.4,9.37,9.45,9.46c0.16,0.35,3.9,8.52,8.66,8.52c3.04,0,5.67-3.3,7.34-6.07
				c0.03-0.05,0.09-0.09,0.16-0.09l0.28,0.13c0.04,0.03,0.08,0.07,0.09,0.11c0.01,0.05,0,0.1-0.02,0.14
				C45.9,15.82,43.05,19.36,39.88,19.36z"/>
			<path class="st2" d="M21.77,0.89c4.93,0,9.12,9.08,9.22,9.31l0,0c0.16,0.35,3.96,8.67,8.89,8.67c3.13,0,5.82-3.32,7.52-6.13
				l0.07,0.04c-1.48,2.39-4.4,6.33-7.59,6.33c-4.97,0-9.18-9.22-9.22-9.31c-0.16-0.35-3.96-8.67-8.89-8.67
				c-4.56,0-8.15,7.1-8.82,8.53l-0.06,0.14l-0.08,0.16l-0.01,0.03l-0.05,0.1c-0.73,1.51-4.6,9.02-9.08,9.02
				c-1.01,0-2.06-0.39-3.14-1.16l0.07-0.11c1.03,0.69,2.07,1.04,3.08,1.04c4.26,0,7.99-6.88,8.72-8.32l0.01,0l0.12-0.26l0.04-0.08
				l0.1-0.22C13.32,8.62,17.24,0.89,21.77,0.89 M21.77,0.39C16.44,0.39,12.1,10,12.1,10h0l-0.04,0.08l0,0c0,0-4,8.29-8.4,8.29
				c-1,0-1.96-0.39-2.85-0.99c-0.08-0.05-0.16-0.08-0.25-0.08c-0.15,0-0.3,0.08-0.38,0.22l-0.13,0.23
				c-0.11,0.19-0.06,0.44,0.12,0.57c1.08,0.78,2.26,1.29,3.48,1.29c4.77,0,8.74-7.67,9.53-9.3h0l0.06-0.14
				c0.05-0.11,0.08-0.17,0.08-0.17h0h0c0,0,0-0.01,0-0.01l0.06-0.12c0.49-1.05,4.05-8.24,8.37-8.24c4.65,0,8.43,8.36,8.43,8.37l0,0
				c0,0,4.34,9.61,9.67,9.61c3.36,0,6.32-3.81,8.06-6.63c0.13-0.21,0.06-0.48-0.15-0.6l-0.18-0.11c-0.07-0.04-0.14-0.06-0.22-0.06
				c-0.15,0-0.29,0.07-0.37,0.21c-1.49,2.47-4.13,5.95-7.13,5.95c-4.66,0-8.43-8.37-8.43-8.37h0C31.45,10,27.11,0.39,21.77,0.39
				L21.77,0.39z"/>
		</g>
	</g>
</g>
</svg>
