<svg xmlns="http://www.w3.org/2000/svg" width="33" height="14" viewBox="0 0 33 14">
  <g fill="none" transform="translate(.09)">
    <path fill="#F68701" d="M3.29814966 4.62106122C3.44421769 4.64761905 3.56870748 4.68579592 3.67161905 4.73393197 3.77453061 4.78372789 3.85254422 4.84182313 3.90897959 4.91153741 3.9637551 4.9812517 3.99197279 5.05760544 3.99197279 5.14391837 3.99197279 5.17545578 3.9869932 5.20865306 3.97537415 5.2435102 3.96541497 5.27836735 3.94881633 5.30990476 3.9272381 5.33978231 3.90565986 5.368 3.87578231 5.39289796 3.84092517 5.41115646 3.80440816 5.42941497 3.76291156 5.43937415 3.71311565 5.43937415 3.66995918 5.43937415 3.63012245 5.43439456 3.59526531 5.42443537 3.56040816 5.41447619 3.52555102 5.40119728 3.49069388 5.38459864 3.45417687 5.368 3.416 5.35140136 3.37284354 5.33148299 3.33134694 5.31322449 3.28155102 5.29496599 3.22345578 5.27836735 3.16702041 5.26342857 3.09896599 5.25014966 3.02261224 5.23853061 2.94459864 5.22857143 2.85496599 5.22359184 2.74873469 5.22359184L2.71221769 5.22359184C2.51801361 5.22359184 2.36032653 5.24517007 2.24247619 5.28832653 2.12462585 5.33314286 2.03333333 5.40119728 1.9702585 5.49414966 1.90718367 5.58710204 1.86568707 5.70661224 1.84410884 5.85102041 1.82253061 5.99708844 1.81257143 6.17137415 1.81257143 6.37387755L1.81257143 6.53654422C1.81257143 6.73904762 1.82253061 6.9149932 1.84410884 7.05940136 1.86568707 7.20546939 1.90718367 7.32331973 1.9702585 7.41627211 2.03333333 7.50922449 2.12462585 7.57561905 2.24247619 7.61877551 2.36032653 7.66193197 2.51801361 7.6835102 2.71221769 7.6835102L2.74873469 7.6835102C2.85330612 7.6835102 2.94459864 7.67853061 3.02261224 7.66691156 3.10062585 7.65695238 3.16702041 7.64367347 3.22345578 7.62707483 3.27989116 7.61047619 3.32968707 7.59387755 3.37284354 7.57395918 3.41434014 7.55404082 3.45417687 7.53744218 3.49069388 7.52084354 3.52721088 7.5042449 3.56206803 7.49096599 3.59526531 7.4810068 3.63012245 7.47104762 3.66829932 7.46606803 3.71311565 7.46606803 3.76291156 7.46606803 3.80440816 7.47602721 3.84092517 7.49428571 3.87744218 7.51254422 3.90565986 7.53744218 3.9272381 7.56731973 3.94881633 7.59553741 3.96541497 7.62707483 3.97537415 7.66193197 3.98533333 7.69678912 3.99197279 7.72832653 3.99197279 7.75986395 3.99197279 7.84617687 3.9637551 7.92419048 3.90897959 7.9922449 3.85420408 8.06195918 3.77453061 8.12005442 3.67161905 8.16985034 3.56870748 8.21964626 3.44421769 8.25616327 3.29814966 8.28272109 3.15208163 8.30927891 2.9877551 8.32255782 2.80682993 8.32255782L2.71719728 8.32255782C2.46655782 8.32255782 2.25243537 8.30097959 2.07317007 8.25616327 1.89390476 8.21134694 1.74451701 8.14827211 1.62168707 8.06693878 1.50051701 7.98560544 1.40258503 7.88767347 1.32955102 7.77314286 1.25651701 7.65861224 1.2017415 7.53246259 1.16190476 7.39469388 1.12372789 7.25526531 1.09882993 7.10753741 1.08721088 6.9515102 1.07559184 6.79382313 1.07061224 6.63115646 1.07061224 6.46019048L1.07061224 6.44359184C1.07061224 6.27594558 1.07559184 6.11161905 1.08721088 5.95227211 1.09882993 5.79292517 1.12372789 5.64519728 1.16190476 5.50576871 1.20008163 5.368 1.25651701 5.24185034 1.32955102 5.12731973 1.40258503 5.01278912 1.49885714 4.91651701 1.62168707 4.83352381 1.74285714 4.75219048 1.89390476 4.68911565 2.07317007 4.64263946 2.25243537 4.59616327 2.46655782 4.57458503 2.71719728 4.57458503L2.80682993 4.57458503C2.9877551 4.58122449 3.15208163 4.5945034 3.29814966 4.62106122zM13.3901224 8.296C13.3386667 8.296 13.2921905 8.29434014 13.2473741 8.28936054 13.2025578 8.28438095 13.1627211 8.27608163 13.1295238 8.26280272 13.0946667 8.24952381 13.0681088 8.22960544 13.0481905 8.20470748 13.0282721 8.17980952 13.0183129 8.14661224 13.0183129 8.10677551L13.0183129 7.99556463 13.0183129 7.98062585 13.0183129 7.95738776 13.0183129 4.92813605 13.0183129 4.91319728C13.0183129 4.89991837 13.0199728 4.88995918 13.0216327 4.88497959 13.0266122 4.85842177 13.0365714 4.83020408 13.0498503 4.79866667 13.0631293 4.76712925 13.0847075 4.7372517 13.1129252 4.71069388 13.1411429 4.68413605 13.1793197 4.66089796 13.2241361 4.64263946 13.2689524 4.62438095 13.3253878 4.61442177 13.3934422 4.61442177L14.4723537 4.61442177 14.4806531 4.61442177 14.4889524 4.61442177C14.7395918 4.61442177 14.9537143 4.636 15.1329796 4.68081633 15.3122449 4.72397279 15.4616327 4.78704762 15.5844626 4.86672109 15.7056327 4.94639456 15.8035646 5.04266667 15.8765986 5.15387755 15.9496327 5.26508844 16.0044082 5.38957823 16.0442449 5.52402721 16.0824218 5.66013605 16.1073197 5.80620408 16.1189388 5.96389116 16.1305578 6.11991837 16.1355374 6.28258503 16.1355374 6.45189116L16.1355374 6.4684898C16.1355374 6.63613605 16.1305578 6.79880272 16.1189388 6.95482993 16.1073197 7.11085714 16.0824218 7.25692517 16.0442449 7.39303401 16.006068 7.52914286 15.9496327 7.65197279 15.8765986 7.76318367 15.8035646 7.87273469 15.7056327 7.9690068 15.5828027 8.04868027 15.4599728 8.12835374 15.3089252 8.18976871 15.1296599 8.23458503 14.9503946 8.2777415 14.7346122 8.30097959 14.4839728 8.30097959L14.4740136 8.30097959 13.3901224 8.30097959 13.3901224 8.296zM14.469034 5.25512925L13.7586122 5.25512925 13.7586122 7.65363265C13.798449 7.65363265 13.846585 7.65363265 13.8997007 7.65197279 13.9528163 7.65197279 14.0075918 7.65031293 14.0623673 7.65031293 14.1171429 7.65031293 14.1719184 7.65031293 14.2233741 7.64865306 14.2748299 7.64865306 14.3213061 7.6469932 14.3628027 7.6469932 14.4042993 7.6469932 14.4358367 7.6469932 14.4590748 7.6469932 14.4823129 7.6469932 14.4922721 7.6469932 14.4906122 7.6469932L14.5453878 7.6469932C14.7279728 7.64367347 14.8740408 7.62043537 14.9852517 7.58059864 15.0964626 7.53910204 15.1811156 7.47436735 15.2408707 7.38805442 15.3006259 7.30008163 15.3421224 7.18721088 15.360381 7.04778231 15.3802993 6.90835374 15.3885986 6.73904762 15.3885986 6.53820408L15.3885986 6.37553741C15.3885986 6.17303401 15.3786395 5.9987483 15.3570612 5.85765986 15.335483 5.71491156 15.2939864 5.60038095 15.2309116 5.51240816 15.1678367 5.42443537 15.0765442 5.35970068 14.9586939 5.31986395 14.8408435 5.28002721 14.6831565 5.26010884 14.4889524 5.26010884L14.4673741 5.26010884 14.4673741 5.25512925 14.469034 5.25512925zM26.3851973 4.59616327L26.3901769 4.59616327C26.4897687 4.59616327 26.5976599 4.59948299 26.7138503 4.60778231 26.8300408 4.61608163 26.9445714 4.63268027 27.0607619 4.6592381 27.1769524 4.68579592 27.2865034 4.72397279 27.3927347 4.77708844 27.498966 4.82854422 27.5935782 4.8982585 27.6749116 4.98457143 27.7579048 5.07088435 27.8226395 5.17877551 27.8724354 5.30658503 27.9222313 5.43439456 27.9454694 5.5887619 27.9454694 5.76968707L27.9454694 5.77964626C27.9454694 5.95559184 27.9238912 6.10497959 27.8790748 6.23278912 27.8342585 6.35893878 27.7745034 6.46517007 27.6981497 6.55148299 27.6234558 6.63779592 27.535483 6.7075102 27.4358912 6.76062585 27.3362993 6.8137415 27.230068 6.85357823 27.1188571 6.88345578 27.0076463 6.91167347 26.8947755 6.93159184 26.7802449 6.94321088 26.6657143 6.95317007 26.5545034 6.95814966 26.4482721 6.95814966L26.4383129 6.95814966 25.7810068 6.95814966 25.7810068 8.12337415C25.7810068 8.16487075 25.7693878 8.19972789 25.7478095 8.22462585 25.7262313 8.24952381 25.6980136 8.26944218 25.6631565 8.28272109 25.6282993 8.296 25.5901224 8.30429932 25.5453061 8.30761905 25.5004898 8.31093878 25.4556735 8.31259864 25.412517 8.31259864 25.3610612 8.31259864 25.314585 8.31093878 25.2697687 8.30595918 25.2249524 8.30097959 25.1851156 8.29268027 25.1519184 8.27940136 25.1170612 8.26612245 25.0905034 8.24786395 25.070585 8.22130612 25.0506667 8.1947483 25.0407075 8.16321088 25.0407075 8.12337415L25.0407075 4.93809524 25.0407075 4.91153741 25.0407075 4.89659864C25.0407075 4.88331973 25.0423673 4.87336054 25.0440272 4.86838095 25.0490068 4.84182313 25.058966 4.81360544 25.0722449 4.78206803 25.0855238 4.75053061 25.107102 4.72065306 25.1353197 4.69409524 25.1635374 4.66753741 25.2017143 4.64429932 25.2465306 4.62604082 25.2913469 4.60778231 25.3477823 4.59782313 25.4158367 4.59782313L26.3851973 4.59782313 26.3851973 4.59616327zM25.7810068 6.31578231C25.8208435 6.31578231 25.8673197 6.31578231 25.9187755 6.31412245 25.9702313 6.31246259 26.0233469 6.31246259 26.0797823 6.31246259 26.1345578 6.31246259 26.1893333 6.31246259 26.242449 6.31246259 26.2955646 6.31246259 26.3453605 6.31246259 26.3918367 6.31246259L26.3918367 6.31080272 26.413415 6.31080272C26.5877007 6.31080272 26.7254694 6.29918367 26.8300408 6.27594558 26.9346122 6.25270748 27.0142857 6.2195102 27.0690612 6.17801361 27.1238367 6.13485714 27.1603537 6.0817415 27.1786122 6.01866667 27.1968707 5.95559184 27.2051701 5.88255782 27.2068299 5.80122449L27.2068299 5.75142857C27.2051701 5.6717551 27.1952109 5.59872109 27.1786122 5.53730612 27.1620136 5.47589116 27.1271565 5.42277551 27.0740408 5.37795918 27.0209252 5.33314286 26.9462313 5.29994558 26.8466395 5.27670748 26.7470476 5.25346939 26.6159184 5.24019048 26.4515918 5.23853061 26.4349932 5.24019048 26.4217143 5.24019048 26.4100952 5.24019048 26.3984762 5.24019048 26.3901769 5.23853061 26.3851973 5.23853061L25.7810068 5.23853061 25.7810068 6.31578231z"/>
    <g fill="#003E37">
      <path d="M.330312925 1.464C.413306122 1.60840816.600870748 1.65156463.738639456 1.55861224 1.30797279 1.18016327 1.91880272.941142857 2.55453061.941142857 4.49823129.941142857 6.20789116 3.16204082 7.20546939 4.80032653 7.28680272 4.93311565 7.45942857 4.97627211 7.59387755 4.8982585L7.71504762 4.82854422C7.85613605 4.74721088 7.90261224 4.56628571 7.81629932 4.42685714 6.66103401 2.56117007 4.73227211.119510204 2.55453061.119510204 1.76941497.119510204 1.01915646.436544218.323673469.927863946.200843537 1.01417687.164326531 1.18016327.239020408 1.30963265L.330312925 1.464zM26.486449.941142857C28.4467483.941142857 30.1696871 3.19855782 31.1622857 4.84016327 31.243619 4.97461224 31.4162449 5.01776871 31.5523537 4.9397551L31.6735238 4.87004082C31.8146122 4.78870748 31.8594286 4.60778231 31.7747755 4.46835374 30.6228299 2.59768707 28.682449.11785034 26.486449.11785034 24.2970884.11785034 22.3616871 2.5827483 21.2080816 4.4517551 21.1217687 4.58952381 21.1682449 4.77210884 21.3093333 4.85344218L21.4305034 4.92315646C21.5666122 5.00117007 21.7392381 4.95801361 21.8205714 4.82356463 22.8148299 3.18527891 24.5327891.941142857 26.486449.941142857zM14.5287891 12.0921088C12.5402721 12.0921088 10.7957551 9.76663946 9.80813605 8.12005442 9.72680272 7.98560544 9.55417687 7.94078912 9.41806803 8.02046259L9.2952381 8.08851701C9.15414966 8.16985034 9.10933333 8.35077551 9.19398639 8.48854422 10.3409524 10.3675102 12.3029116 12.9137415 14.5287891 12.9137415 16.7480272 12.9137415 18.7083265 10.3791293 19.8552925 8.50182313 19.9399456 8.36405442 19.8934694 8.18312925 19.7540408 8.10179592L19.6328707 8.03208163C19.4967619 7.95406803 19.3241361 7.99722449 19.2428027 8.13167347 18.2535238 9.7782585 16.5123265 12.0921088 14.5287891 12.0921088z"/>
      <path d="M31.7249796,8.10179592 L31.6038095,8.03208163 C31.4677007,7.95406803 31.2950748,7.99722449 31.2137415,8.13167347 C30.2261224,9.7782585 28.4849252,12.0921088 26.4997279,12.0921088 C23.4206803,12.0921088 20.9242449,6.51662585 20.9242449,6.51662585 L20.9242449,6.51662585 C20.9242449,6.51662585 18.0543401,0.119510204 14.5271293,0.119510204 C10.9999184,0.119510204 8.13001361,6.51662585 8.13001361,6.51662585 L8.13167347,6.51662585 L8.10677551,6.5697415 L8.10677551,6.5697415 C8.10677551,6.5697415 5.46095238,12.0921088 2.55619048,12.0921088 C1.89556463,12.0921088 1.25983673,11.8348299 0.672244898,11.4298231 C0.53447619,11.3352109 0.343591837,11.3767075 0.258938776,11.5227755 L0.170965986,11.675483 C0.0962721088,11.8032925 0.132789116,11.967619 0.25229932,12.053932 C0.96770068,12.5751293 1.74451701,12.9137415 2.55619048,12.9137415 C5.70661224,12.9137415 8.33251701,7.80965986 8.85703401,6.72078912 L8.85869388,6.72078912 L8.90019048,6.6294966 C8.93504762,6.55646259 8.95164626,6.51828571 8.95164626,6.51828571 L8.95164626,6.51828571 L8.95164626,6.51828571 L8.95164626,6.51828571 C8.95164626,6.51828571 8.95330612,6.51496599 8.95330612,6.51330612 L8.99148299,6.43031293 C9.31847619,5.73482993 11.6705034,0.941142857 14.5271293,0.941142857 C17.604517,0.941142857 20.0992925,6.50998639 20.1026122,6.51662585 L20.1026122,6.51662585 C20.1026122,6.51662585 22.972517,12.9137415 26.4997279,12.9137415 C28.718966,12.9137415 30.6792653,10.3807891 31.8262313,8.50182313 C31.9108844,8.36239456 31.866068,8.18312925 31.7249796,8.10179592 Z"/>
    </g>
  </g>
</svg>
