<?xml version="1.0" encoding="UTF-8"?>
<svg width="15px" height="13px" viewBox="0 0 15 13" version="1.1" xmlns="http://www.w3.org/2000/svg" xmlns:xlink="http://www.w3.org/1999/xlink">
    <!-- Generator: sketchtool 61 (101010) - https://sketch.com -->
    <title>1341872B-A4E4-4E75-8BF4-2C9A630CE505</title>
    <desc>Created with sketchtool.</desc>
    <defs>
        <linearGradient x1="0.0101096525%" y1="50.0255572%" x2="100%" y2="50.0255572%" id="linearGradient-1">
            <stop stop-color="#F7AD6A" offset="0%"></stop>
            <stop stop-color="#F7AA63" offset="16%"></stop>
            <stop stop-color="#F7A350" offset="39%"></stop>
            <stop stop-color="#F69830" offset="67%"></stop>
            <stop stop-color="#F68804" offset="98%"></stop>
            <stop stop-color="#F68701" offset="100%"></stop>
        </linearGradient>
    </defs>
    <g id="Page-1" stroke="none" stroke-width="1" fill="none" fill-rule="evenodd">
        <g id="CDP-Fav-Icon" transform="translate(0.000000, -1.000000)" fill-rule="nonzero">
            <g id="Group-Copy-2" transform="translate(0.000000, 1.000000)">
                <path d="M4.16795896,0.365600848 C5.09721912,0.0258668701 6.06525331,-0.0718557404 6.99954771,0.0506503841 L6.99927083,2.57483718 C6.8588629,2.51274356 6.71618833,2.46485122 6.56809404,2.45508185 C5.40561132,2.37839613 4.2159907,2.79956022 3.39360399,3.7077021 C1.97328662,5.27612444 1.97328662,7.72957117 3.39360399,9.2979935 C4.27697337,10.2734771 5.39351906,10.7345548 6.54545455,10.5547941 C6.69799599,10.5309899 6.84836228,10.4784344 6.99900499,10.415069 L6.99954771,12.9493496 C6.06525331,13.0718557 5.09721912,12.9741331 4.16795896,12.6343992 C1.67148363,11.7216973 -6.76399078e-16,9.26160881 0,6.5 C6.76399078e-16,3.73839119 1.67148363,1.27830272 4.16795896,0.365600848 Z" id="Combined-Shape-Copy-2" fill="url(#linearGradient-1)"></path>
                <path d="M6.00308642,5 C6.16906805,5 6.31995817,5.01198697 6.45576132,5.03596127 C6.59156447,5.05993557 6.71039044,5.08759781 6.8122428,5.11894882 C6.91409516,5.15029983 6.99897085,5.18257245 7.06687243,5.21576763 L7.10934575,5.23680486 C7.15563784,5.26007327 7.19051962,5.27887908 7.21399177,5.29322268 L6.95936214,5.99031812 C6.83864823,5.9276161 6.6981318,5.87413577 6.53780864,5.82987552 C6.37748548,5.78561527 6.19547427,5.76348548 5.99176955,5.76348548 C5.8559664,5.76348548 5.72299448,5.78561527 5.59284979,5.82987552 C5.46270511,5.87413577 5.34765139,5.94513552 5.24768519,6.0428769 C5.14771898,6.14061828 5.0675586,6.26694252 5.00720165,6.42185339 C4.94684469,6.57676426 4.91666667,6.7648675 4.91666667,6.98616874 C4.91666667,7.16320974 4.936471,7.32826111 4.97608025,7.4813278 C5.0156895,7.6343945 5.0798178,7.76625173 5.16846708,7.8769018 C5.25711636,7.98755242 5.37311314,8.07514952 5.51646091,8.13969571 C5.65980867,8.20424191 5.83333231,8.23651452 6.03703704,8.23651452 C6.16529557,8.23651452 6.28034928,8.22913793 6.38220165,8.21438451 C6.48405401,8.19963109 6.57458808,8.18211167 6.65380658,8.16182573 C6.73302509,8.14153978 6.80281177,8.11848791 6.86316872,8.09266943 L6.93288072,8.06257259 C6.96637859,8.04796681 6.99783936,8.03402496 7.02726337,8.02074689 L7.27057613,8.71230982 C7.14608991,8.7860769 6.97068014,8.85246628 6.74434156,8.91147994 C6.51800298,8.97049361 6.25583139,9 5.95781893,9 C5.3202986,9 4.83462101,8.82664996 4.5007716,8.47994467 C4.1669222,8.13323939 4,7.64085151 4,7.00276625 C4,6.6855678 4.05092542,6.40249087 4.15277778,6.15352697 C4.25463014,5.90456307 4.3942035,5.69433004 4.57150206,5.52282158 C4.74880061,5.35131311 4.96004678,5.22130058 5.20524691,5.13278008 C5.45044704,5.04425959 5.71639088,5 6.00308642,5 Z M9.04166667,5.04426003 C9.37740223,5.04426003 9.68201166,5.08114302 9.95550412,5.1549101 C10.2289966,5.22867718 10.4638193,5.34485859 10.6599794,5.50345781 C10.8561395,5.66205704 11.0070297,5.86491347 11.1126543,6.1120332 C11.218279,6.35915292 11.2710905,6.65606097 11.2710905,7.00276625 C11.2710905,7.33471812 11.218279,7.62424957 11.1126543,7.87136929 C11.0070297,8.11848902 10.8570826,8.3231896 10.6628086,8.48547718 C10.4685347,8.64776476 10.2318258,8.76947862 9.9526749,8.85062241 C9.67352398,8.9317662 9.36042698,8.97233748 9.01337449,8.97233748 C8.85493748,8.97233748 8.67009708,8.96588296 8.45884774,8.95297372 C8.2475984,8.94006448 8.04012448,8.91332432 7.83641975,8.87275242 L7.83641975,5.13831259 C8.04012448,5.10142905 8.25231371,5.07653303 8.47299383,5.06362379 L8.58074021,5.05770706 C8.75599477,5.04874234 8.90963583,5.04426003 9.04166667,5.04426003 Z M13.183642,5.04426003 C13.76835,5.04426003 14.2172481,5.14476617 14.5303498,5.34578147 C14.8434515,5.54679676 15,5.87597743 15,6.33333333 C15,6.79437759 14.8415654,7.12724656 14.5246914,7.33195021 C14.2078173,7.53665386 13.755147,7.63900415 13.1666667,7.63900415 L12.8894033,7.63900415 L12.8894033,8.92254495 L12.0066872,8.92254495 L12.0066872,5.14384509 C12.199075,5.10696155 12.4027767,5.08114346 12.6177984,5.06639004 C12.83282,5.05163663 13.0214327,5.04426003 13.183642,5.04426003 Z M9.08693416,5.78008299 C9.0265772,5.78008299 8.96433503,5.78100506 8.90020576,5.78284924 C8.8360765,5.78469342 8.77572045,5.78930379 8.7191358,5.7966805 L8.7191358,8.21991701 C8.76063121,8.22360537 8.80872744,8.22637159 8.86342593,8.22821577 L8.92158211,8.22975258 C8.96265809,8.23057221 9.00834451,8.23098202 9.05864198,8.23098202 C9.50000221,8.23098202 9.82724516,8.12217721 10.0403807,7.90456432 C10.2535162,7.68695142 10.3600823,7.38635508 10.3600823,7.00276625 C10.3600823,6.60073566 10.2582315,6.29645101 10.0545267,6.08990318 C9.85082203,5.88335535 9.52829439,5.78008299 9.08693416,5.78008299 Z M13.5794194,5.77474126 L12.8721353,5.77474126 L12.8721353,7.10974126 L13.5794194,7.11017313 C13.9481887,7.11017313 14.2471353,6.81122652 14.2471353,6.44245719 C14.2471353,6.07368787 13.9481887,5.77474126 13.5794194,5.77474126 L13.5794194,5.77474126 Z" id="Combined-Shape" fill="#144D43"></path>
            </g>
        </g>
    </g>
</svg>