<?xml version="1.0" encoding="UTF-8" standalone="no"?><!DOCTYPE svg PUBLIC "-//W3C//DTD SVG 1.1//EN" "http://www.w3.org/Graphics/SVG/1.1/DTD/svg11.dtd"><svg width="298px" height="55px" viewBox="0 0 298 55" version="1.1" xmlns="http://www.w3.org/2000/svg" xmlns:xlink="http://www.w3.org/1999/xlink" xml:space="preserve" xmlns:serif="http://www.serif.com/" style="fill-rule:evenodd;clip-rule:evenodd;stroke-linejoin:round;stroke-miterlimit:1.41421;"><g><path d="M30.072,38.25l3.55,0c2.07,0 3.992,-0.438 5.471,-1.768l-0.444,2.804c-0.888,0.151 -1.923,0.151 -3.106,0.151l-9.168,0c0.738,-1.035 0.738,-2.661 0.738,-4.141l0,-11.831c0,-1.48 0,-3.107 -0.591,-4.289l10.942,0l0.152,2.514c-1.037,-0.887 -2.811,-1.184 -4.588,-1.184l-2.956,0l0,7.543c2.367,0 5.027,0 7.392,-0.144c-1.033,1.768 -4.73,1.768 -6.653,1.768l-0.739,0l0,8.577Z" style="fill:#263B80;fill-rule:nonzero;"/><path d="M45.159,35.296c0,1.48 0,3.106 0.738,4.141l-4.291,0c0.741,-1.035 0.741,-2.661 0.741,-4.141l0,-11.831c0,-1.48 0,-3.107 -0.591,-4.289l9.762,0c0.738,0 1.477,0 1.477,0.297l0,2.512l-0.147,0c-0.888,-1.479 -2.959,-1.479 -4.436,-1.479l-3.253,0l0,8.132c2.512,0 5.027,0 7.54,-0.144c-1.181,1.777 -4.731,1.777 -6.655,1.777l-0.885,0l0,5.025Z" style="fill:#263B80;fill-rule:nonzero;"/><path d="M11.881,17.4c-0.147,0.297 0,0.593 0.147,0.593c0.297,0.148 0.445,0 0.592,-0.149c0.149,-0.147 6.506,-12.867 22.332,-12.867c16.417,0 23.071,13.607 23.665,22.629c0.294,4.878 -1.333,10.947 -4.439,15.822c-2.662,4.14 -7.542,9.318 -15.382,10.505c-0.294,0 -0.443,0.295 -0.443,0.589c0,0.151 0.296,0.446 0.593,0.294c13.014,-1.481 22.922,-13.013 22.922,-26.767c0,-14.938 -11.684,-27.064 -26.028,-27.064l-0.148,0c-10.353,0 -19.819,6.505 -23.813,16.415l0.002,0Z" style="fill:#c2932d;fill-rule:nonzero;"/><path d="M10.848,39.884c3.548,7.979 11.09,13.897 20.406,14.932c0.15,0.152 0.445,-0.143 0.445,-0.294c0,-0.294 -0.148,-0.589 -0.445,-0.589c-7.69,-1.037 -12.717,-5.623 -15.379,-9.47c-1.628,-2.509 -2.809,-5.177 -3.55,-7.981l5.619,-13.461c0.149,-0.295 0.297,-0.442 0.444,-0.442c0.297,0 0.297,0.295 0.297,0.589l0,10.646c0,1.776 0,4.141 -0.592,5.623l4.584,0c-0.592,-1.187 -0.739,-2.661 -0.886,-4.141c-0.444,-3.847 -0.297,-7.69 -0.297,-11.535c0,-1.626 -0.147,-3.255 0.591,-4.585l-3.253,0c-0.739,0 -1.036,0.739 -1.183,1.33l-5.621,13.308c-0.147,0.447 -0.294,0.742 -0.444,0.742c-0.294,0 -0.441,-0.59 -0.589,-1.036l-4.438,-13.753c-0.148,-0.444 -0.592,-0.591 -1.034,-0.591l-4.143,0c0.741,0.591 0.741,1.035 0.741,1.774l0,7.99c0,3.401 0,8.426 -1.185,10.203l-0.295,0.294l3.697,0c-0.591,-1.035 -0.591,-3.106 -0.591,-5.471l0,-10.354c0,-0.444 0,-1.035 0.295,-1.035c0.296,0 0.444,0.738 0.741,1.626l6.065,15.681Z" style="fill:#263B80;fill-rule:nonzero;"/><path d="M85.088,9.71c-0.444,0.888 -0.444,1.923 -0.444,2.958c0,2.366 -0.147,4.732 0.148,7.247c0.148,0.888 0.148,1.775 0.593,2.514l-2.959,0c0.444,-1.035 0.444,-2.367 0.444,-3.55l0,-6.654c0,-0.15 0,-0.444 -0.147,-0.444c-0.15,0 -0.15,0.147 -0.297,0.294l-4.438,10.649l-3.696,-9.761c-0.297,-0.591 -0.443,-1.182 -0.591,-1.182c-0.149,0 -0.149,0.444 -0.149,0.739l0,6.506c0,1.48 0,2.81 0.443,3.403l-2.365,0l0.147,-0.296c0.741,-1.036 0.741,-4.14 0.741,-6.211l0,-5.027c0,-0.594 0,-0.888 -0.444,-1.185l2.513,0c0.149,0 0.444,0.147 0.592,0.297l2.958,8.725c0,0.297 0.148,0.591 0.295,0.591c0.149,0 0.149,-0.149 0.297,-0.444l3.4,-8.283c0.295,-0.442 0.444,-0.886 0.888,-0.886l2.071,0Z" style="fill:#263B80;fill-rule:nonzero;"/><path d="M88.638,10.007l0.886,1.33l-1.477,0.888l-0.888,-1.33l1.479,-0.888Zm0.445,3.253l0,7.098c0,0.739 0,1.48 0.441,2.071l-2.218,0c0.297,-0.591 0.297,-1.332 0.297,-2.071l0,-5.471c0,-0.592 0,-1.035 -0.444,-1.332l1.924,-0.295Z" style="fill:#263B80;fill-rule:nonzero;"/><path d="M93.519,13.407l0,0.741c0,0.147 0,0.295 0.147,0.295c0.147,0 1.035,-1.183 2.515,-1.183c1.626,0 2.514,0.739 2.514,2.662l0,4.436c0,0.739 0,1.48 0.295,2.071l-1.776,0l0,-5.473c0,-1.181 -0.148,-2.663 -1.774,-2.663c-1.627,0 -1.921,1.482 -1.921,2.812l0,3.253c0,0.739 0,1.478 0.443,2.071l-2.217,0c0.294,-0.593 0.294,-1.332 0.294,-2.071l0,-4.733c0,-0.888 0,-1.626 -0.294,-2.07l1.774,-0.148Z" style="fill:#263B80;fill-rule:nonzero;"/><path d="M102.688,10.007l0.885,1.33l-1.477,0.888l-0.888,-1.33l1.48,-0.888Zm0.443,3.253l0,7.098c0,0.739 0,1.48 0.295,2.071l-2.218,0c0.444,-0.591 0.444,-1.332 0.444,-2.071l0,-5.471c0,-0.592 0,-1.035 -0.444,-1.332l1.923,-0.295Z" style="fill:#263B80;fill-rule:nonzero;"/><path d="M111.413,19.917c0,1.921 -1.922,2.809 -3.55,2.809c-0.739,0 -1.478,-0.149 -2.219,-0.444c-0.147,0 -0.294,-0.147 -0.294,-0.444c0,-0.444 0,-0.888 0,-1.332c0.738,0.888 1.182,1.629 2.513,1.629c1.184,0 1.776,-0.593 1.776,-1.774c0,-2.368 -3.845,-2.071 -3.845,-5.03c0,-1.479 1.183,-2.071 2.956,-2.071c0.592,0 1.185,0.149 1.774,0.295c0.15,0 0.297,0 0.297,0.149c0,0.295 0,0.888 0,1.332c-0.74,-1.037 -1.182,-1.184 -2.071,-1.184c-0.738,0 -1.479,0.443 -1.479,1.184c0,2.366 4.142,2.069 4.142,4.881Z" style="fill:#263B80;fill-rule:nonzero;"/><path d="M114.963,10.745l0,2.81l1.626,0c0.148,0 0.295,0 0.295,0.149c0,0.444 -0.886,0.589 -1.477,0.589l-0.444,0l0,6.065c0,0.739 0.147,1.332 1.035,1.332c0.295,0 0.886,-0.296 1.183,-0.593l-0.148,0.888c0,0.15 -0.887,0.741 -1.628,0.741c-1.33,0 -1.774,-0.741 -1.774,-2.071l0,-6.36l-0.888,0l0,-0.591l0.888,-0.149l0,-2.366l1.33,-0.444l0.002,0Z" style="fill:#263B80;fill-rule:nonzero;"/><path d="M120.14,16.661c0,0.444 0,0.739 0,1.183c0,1.776 0.738,3.55 2.809,3.55c1.033,0 1.922,-0.297 2.515,-0.888l0,0.297c0,1.033 -1.776,1.921 -3.256,1.921c-2.513,0 -3.845,-2.366 -3.845,-4.731c0,-2.515 1.48,-4.733 4.289,-4.733c1.775,0 2.957,1.33 2.957,2.515c0,0.886 -0.591,0.886 -1.921,0.886l-3.548,0Zm2.217,-0.592c1.036,0 1.478,0 1.478,-0.738c0,-0.739 -0.589,-1.479 -1.478,-1.479c-1.329,0 -1.775,1.182 -2.07,2.217l2.07,0Z" style="fill:#263B80;fill-rule:nonzero;"/><path d="M127.682,16.811c0,-1.48 0,-2.812 -0.593,-3.256c0.741,0 1.481,-0.148 1.628,-0.148c0.444,0 0.148,1.036 0.444,1.036c0,0 0.739,-1.183 1.922,-1.183c0.74,0 1.035,0.295 1.035,0.739c0,0.444 -0.147,0.738 -0.739,0.738c-0.296,0 -0.74,-0.147 -1.184,-0.147c-1.034,0 -1.034,0.741 -1.034,1.627l0,4.141c0,0.739 0,1.48 0.295,2.071l-2.218,0c0.444,-0.591 0.444,-1.332 0.444,-2.071l0,-3.547l0,0Z" style="fill:#263B80;fill-rule:nonzero;"/><path d="M136.704,22.726c-2.664,0 -3.847,-2.22 -3.847,-4.289c0,-3.106 1.774,-5.177 4.732,-5.177c2.81,0 3.846,2.218 3.846,4.439c0,3.104 -1.774,5.027 -4.731,5.027Zm0.739,-0.591c1.774,0 2.365,-1.924 2.365,-3.551c0,-2.367 -0.739,-4.585 -2.81,-4.585c-1.923,0 -2.367,1.776 -2.367,3.55c0,2.218 0.593,4.586 2.812,4.586Z" style="fill:#263B80;fill-rule:nonzero;"/><path d="M77.843,46.534l0,-0.741l-0.15,-0.143c-0.147,0 -0.888,1.035 -2.662,1.035c-2.367,0 -3.401,-2.366 -3.401,-4.436c0,-3.258 2.071,-5.033 5.175,-5.033c0.297,0 0.591,0 1.036,0l0,-2.51c0,-0.74 0,-1.481 -0.445,-1.927l1.924,-0.295l0,11.685c0,0.74 0,1.632 0.297,2.221l-1.776,0.144l0.002,0Zm0,-7.248c0,-0.884 -0.297,-1.331 -1.332,-1.331c-2.219,0 -3.402,1.634 -3.402,3.848c0,1.776 0.886,3.847 2.957,3.847c1.183,0 1.777,-0.884 1.777,-1.92l0,-4.444Z" style="fill:#263B80;fill-rule:nonzero;"/><path d="M83.017,40.624c0,0.438 -0.147,0.732 -0.147,1.179c0,1.776 0.886,3.552 2.959,3.552c0.886,0 1.921,-0.446 2.365,-0.892l0,0.151c0,1.036 -1.629,2.071 -3.106,2.071c-2.662,0 -3.845,-2.366 -3.845,-4.731c0,-2.668 1.48,-4.738 4.142,-4.738c1.921,0 3.104,1.186 3.104,2.515c0,0.893 -0.739,0.893 -1.924,0.893l-3.548,0l0,0Zm2.071,-0.598c1.036,0 1.627,0 1.627,-0.74c0,-0.733 -0.591,-1.473 -1.627,-1.473c-1.183,0 -1.774,1.178 -1.923,2.213l1.923,0Z" style="fill:#263B80;fill-rule:nonzero;"/><path d="M90.265,46.39c0.295,-0.597 0.295,-1.481 0.295,-2.221l0,-9.463c0,-0.74 0,-1.481 -0.445,-1.927l1.924,-0.295l0,11.685c0,0.74 0,1.624 0.444,2.221l-2.218,0Z" style="fill:#263B80;fill-rule:nonzero;"/><path d="M94.996,46.39c0.444,-0.597 0.444,-1.481 0.444,-2.221l0,-9.463c0,-0.74 0,-1.481 -0.589,-1.927l2.068,-0.295l0,11.685c0,0.74 0,1.624 0.295,2.221l-2.218,0Z" style="fill:#263B80;fill-rule:nonzero;"/><path d="M100.32,37.813c0,-0.742 -0.295,-3.257 -0.295,-3.705c0,-0.294 0.148,-0.731 0.739,-0.731c0.444,0 0.741,0.437 0.741,0.731c0,0.448 -0.297,2.963 -0.444,3.704c0,0.143 0,0.59 -0.297,0.59c-0.295,0 -0.444,-0.447 -0.444,-0.59Z" style="fill:#263B80;fill-rule:nonzero;"/><path d="M106.237,45.498l2.219,0c1.33,0 2.513,-0.295 3.548,-1.035l-0.442,1.776c-0.446,0 -1.185,0.151 -1.923,0.151l-5.769,0c0.444,-0.74 0.591,-1.776 0.591,-2.66l0,-7.399c0,-0.884 0,-1.92 -0.443,-2.66l6.951,0l0,1.474c-0.592,-0.589 -1.776,-0.734 -2.957,-0.734l-1.775,0l0,4.875c1.478,0 3.105,0 4.732,-0.143c-0.739,1.035 -2.957,1.035 -4.289,1.035l-0.443,0l0,5.32Z" style="fill:#263B80;fill-rule:nonzero;"/><path d="M119.843,39.437l-0.148,0c-0.444,-0.884 -0.74,-1.482 -1.923,-1.482c-1.774,0 -2.809,1.776 -2.809,3.999c0,1.92 0.74,3.544 2.958,3.544c0.737,0 1.625,-0.295 2.219,-0.884l0,0.447c0,1.035 -1.482,1.624 -2.959,1.624c-2.515,0 -3.993,-2.071 -3.993,-4.436c0,-2.963 1.922,-5.033 4.881,-5.033c0.888,0 1.774,0.15 1.774,0.302l0,1.919Z" style="fill:#263B80;fill-rule:nonzero;"/><path d="M124.871,46.685c-2.663,0 -3.845,-2.222 -3.845,-4.436c0,-3.106 1.774,-5.033 4.733,-5.033c2.809,0 3.845,2.221 3.845,4.443c0,2.955 -1.627,5.026 -4.733,5.026Zm0.74,-0.741c1.774,0 2.366,-1.775 2.366,-3.551c0,-2.215 -0.739,-4.438 -2.81,-4.438c-1.921,0 -2.367,1.776 -2.367,3.401c0,2.374 0.741,4.588 2.811,4.588Z" style="fill:#263B80;fill-rule:nonzero;"/><path d="M132.857,37.366l0,0.741c0,0.143 0,0.295 0.149,0.295c0.147,0 1.036,-1.186 2.66,-1.186c1.482,0 2.37,0.739 2.37,2.515l0,4.438c0,0.74 0,1.624 0.295,2.221l-1.777,0l0,-5.471c0,-1.33 -0.147,-2.669 -1.774,-2.669c-1.627,0 -1.921,1.481 -1.921,2.813l0,3.106c0,0.74 0,1.624 0.442,2.221l-2.218,0c0.296,-0.597 0.296,-1.481 0.296,-2.221l0,-4.732c0,-0.741 0,-1.482 -0.296,-1.919l1.776,-0.152l-0.002,0Z" style="fill:#263B80;fill-rule:nonzero;"/><path d="M143.655,46.685c-2.664,0 -3.847,-2.222 -3.847,-4.436c0,-3.106 1.776,-5.033 4.733,-5.033c2.809,0 3.844,2.221 3.844,4.443c0,2.955 -1.774,5.026 -4.73,5.026Zm0.739,-0.741c1.773,0 2.365,-1.775 2.365,-3.551c0,-2.215 -0.739,-4.438 -2.81,-4.438c-1.921,0 -2.365,1.776 -2.365,3.401c0,2.374 0.591,4.588 2.81,4.588Z" style="fill:#263B80;fill-rule:nonzero;"/><path d="M150.161,39.437c0,-0.741 0,-1.482 -0.443,-1.919l2.069,-0.152l0,0.741c0,0.143 0,0.295 0.15,0.295c0,0 1.179,-1.186 2.366,-1.186c1.772,0 1.92,1.48 2.218,1.48c0.147,0 1.036,-1.48 2.512,-1.48c1.331,0 2.219,0.739 2.219,2.515l0,4.438c0,0.74 0,1.624 0.295,2.221l-1.773,0l0,-5.471c0,-1.338 -0.147,-2.669 -1.476,-2.669c-1.63,0 -1.924,1.331 -1.924,2.813l0,3.106c0,0.74 0,1.624 0.442,2.221l-2.218,0c0.442,-0.597 0.442,-1.481 0.442,-2.221l0,-3.25c0,-1.338 -0.295,-2.669 -1.625,-2.669c-1.478,0 -1.776,1.331 -1.776,2.813l0,3.106c0,0.74 0,1.624 0.298,2.221l-2.07,0c0.294,-0.597 0.294,-1.481 0.294,-2.221l0,-4.732Z" style="fill:#263B80;fill-rule:nonzero;"/><path d="M165.099,33.814l1.036,1.331l-1.482,1.035l-0.887,-1.33l1.333,-1.036Zm0.589,3.402l0,6.953c0,0.74 0,1.624 0.299,2.221l-2.221,0c0.445,-0.597 0.445,-1.481 0.445,-2.221l0,-5.321c0,-0.741 0,-1.036 -0.445,-1.33l1.922,-0.302Z" style="fill:#263B80;fill-rule:nonzero;"/><path d="M173.083,46.534c-0.146,-0.741 -0.146,-1.331 -0.295,-1.331c0,0 0,0.152 -0.146,0.152c-0.447,0.741 -0.888,1.33 -2.219,1.33c-1.482,0 -2.517,-0.741 -2.517,-2.222c0,-1.768 2.218,-2.509 3.553,-3.107c1.183,-0.437 1.478,-0.588 1.478,-1.767c0,-1.036 -0.444,-1.776 -1.63,-1.776c-1.919,0 -1.031,1.918 -2.366,1.918c-0.441,0 -0.74,-0.294 -0.74,-0.74c0,-1.33 2.075,-1.767 3.553,-1.767c1.329,0 2.659,0.294 2.659,1.624l0,4.285c0,1.186 -0.147,2.365 0.446,3.257l-1.776,0.144Zm-1.919,-1.036c1.179,0 1.773,-1.035 1.773,-2.07l0,-2.072l-1.183,0.598c-1.331,0.741 -2.219,1.036 -2.219,2.215c0,0.892 0.741,1.329 1.629,1.329Z" style="fill:#263B80;fill-rule:nonzero;"/><path d="M183.143,40.624c-0.152,0.295 -0.152,0.59 -0.152,1.035c0,1.92 0.888,3.696 2.958,3.696c0.889,0 1.924,-0.446 2.366,-1.036l0,0.295c0,1.036 -1.625,2.071 -3.106,2.071c-2.659,0 -3.842,-2.366 -3.842,-4.882c0,-2.517 1.477,-4.732 4.141,-4.732c1.923,0 3.105,1.331 3.105,2.66c0,0.893 -0.74,0.893 -1.923,0.893l-3.547,0l0,0Zm2.071,-0.598c1.034,0 1.476,0 1.476,-0.74c0,-0.733 -0.442,-1.625 -1.476,-1.625c-1.188,0 -1.776,1.33 -1.924,2.365l1.924,0Z" style="fill:#263B80;fill-rule:nonzero;"/><path d="M201.186,46.534l-0.147,-0.741l0,-0.143c-0.152,0 -0.893,1.035 -2.812,1.035c-2.366,0 -3.4,-2.366 -3.4,-4.436c0,-3.258 2.067,-5.178 5.172,-5.178c0.446,0 0.741,0.145 1.04,0.145l0,-2.51c0,-0.892 0,-1.624 -0.447,-2.07l1.925,-0.295l0,11.828c0,0.74 0,1.632 0.441,2.07l-1.772,0.295Zm-0.147,-7.248c0,-0.884 -0.152,-1.474 -1.186,-1.474c-2.219,0 -3.402,1.625 -3.402,3.991c0,1.776 0.888,3.847 2.958,3.847c1.183,0 1.63,-0.892 1.63,-2.071l0,-4.293Z" style="fill:#263B80;fill-rule:nonzero;"/><path d="M206.211,40.624c0,0.295 0,0.59 0,1.035c0,1.92 0.888,3.696 2.959,3.696c0.889,0 1.924,-0.446 2.365,-1.036l0,0.295c0,1.036 -1.772,2.071 -3.105,2.071c-2.66,0 -3.843,-2.366 -3.843,-4.882c0,-2.517 1.329,-4.732 4.142,-4.732c1.919,0 2.954,1.331 2.954,2.66c0,0.893 -0.589,0.893 -1.924,0.893l-3.548,0l0,0Zm2.219,-0.598c1.035,0 1.481,0 1.481,-0.74c0,-0.733 -0.446,-1.625 -1.481,-1.625c-1.331,0 -1.773,1.33 -2.072,2.365l2.072,0Z" style="fill:#263B80;fill-rule:nonzero;"/><path d="M213.459,46.239c0.442,-0.446 0.442,-1.33 0.442,-2.07l0,-9.463c0,-0.892 0,-1.624 -0.589,-2.07l2.071,-0.295l0,11.828c0,0.74 0,1.632 0.295,2.07l-2.219,0Z" style="fill:#263B80;fill-rule:nonzero;"/><path d="M218.338,46.239c0.298,-0.446 0.298,-1.33 0.298,-2.07l0,-9.463c0,-0.892 0,-1.624 -0.447,-2.07l1.924,-0.295l0,11.828c0,0.74 0,1.632 0.446,2.07l-2.221,0Z" style="fill:#263B80;fill-rule:nonzero;"/><path d="M224.255,40.624c0,0.295 0,0.59 0,1.035c0,1.92 0.888,3.696 2.959,3.696c0.888,0 1.924,-0.446 2.365,-1.036l0,0.295c0,1.036 -1.629,2.071 -3.105,2.071c-2.662,0 -3.848,-2.366 -3.848,-4.882c0,-2.517 1.334,-4.732 4.142,-4.732c1.923,0 2.959,1.331 2.959,2.66c0,0.893 -0.589,0.893 -1.777,0.893l-3.695,0l0,0Zm2.219,-0.598c1.034,0 1.48,0 1.48,-0.74c0,-0.733 -0.446,-1.625 -1.48,-1.625c-1.184,0 -1.774,1.33 -2.073,2.365l2.073,0Z" style="fill:#263B80;fill-rule:nonzero;"/><path d="M238.603,43.73c0,0.884 0,1.92 0.442,2.509l-2.66,0c0.442,-0.589 0.442,-1.625 0.442,-2.509l0,-7.55c0,-0.884 0,-1.919 -0.442,-2.509l6.208,0c0.446,0 0.888,0 0.888,0.143l0,1.482c-0.588,-0.885 -1.923,-0.885 -2.811,-0.885l-2.067,0l0,5.17c1.477,0 3.105,0 4.731,-0.144c-0.741,1.036 -2.959,1.036 -4.289,1.036l-0.442,0l0,3.257Z" style="fill:#263B80;fill-rule:nonzero;"/><path d="M246.882,33.814l0.888,1.331l-1.478,0.892l-0.888,-1.187l1.478,-1.036Zm0.446,3.257l0,7.098c0,0.74 0,1.624 0.442,2.07l-2.218,0c0.295,-0.446 0.295,-1.33 0.295,-2.07l0,-5.321c0,-0.741 0,-1.187 -0.443,-1.482l1.924,-0.295Z" style="fill:#263B80;fill-rule:nonzero;"/><path d="M251.765,37.366l0,0.589c0,0.152 0,0.447 0.146,0.447c0.148,0 1.036,-1.331 2.664,-1.331c1.478,0 2.365,0.741 2.365,2.66l0,4.438c0,0.74 0,1.632 0.295,2.07l-1.776,0l0,-5.32c0,-1.33 -0.147,-2.669 -1.772,-2.669c-1.628,0 -1.922,1.331 -1.922,2.669l0,3.25c0,0.74 0,1.624 0.441,2.07l-2.218,0c0.295,-0.446 0.295,-1.33 0.295,-2.07l0,-4.732c0,-0.884 0,-1.624 -0.295,-2.071l1.777,0Z" style="fill:#263B80;fill-rule:nonzero;"/><path d="M264.037,46.39c-0.147,-0.74 -0.147,-1.187 -0.294,-1.187l-0.148,0c-0.446,0.741 -0.888,1.482 -2.366,1.482c-1.333,0 -2.369,-0.892 -2.369,-2.222c0,-1.776 2.219,-2.509 3.552,-3.107c1.183,-0.588 1.478,-0.588 1.478,-1.919c0,-1.035 -0.442,-1.776 -1.628,-1.776c-1.92,0 -1.033,1.92 -2.366,1.92c-0.442,0 -0.741,-0.144 -0.741,-0.59c0,-1.473 1.924,-1.92 3.552,-1.92c1.33,0 2.514,0.295 2.514,1.625l0,4.437c0,1.186 0,2.365 0.592,3.106l-1.776,0.151Zm-2.07,-0.892c1.186,0 1.923,-1.035 1.923,-2.214l0,-1.928l-1.183,0.447c-1.478,0.74 -2.218,1.187 -2.218,2.221c0,1.037 0.59,1.474 1.478,1.474Z" style="fill:#263B80;fill-rule:nonzero;"/><path d="M269.067,37.366l0,0.589c0,0.152 0,0.447 0.147,0.447c0.147,0 1.036,-1.331 2.513,-1.331c1.628,0 2.516,0.741 2.516,2.66l0,4.438c0,0.74 0,1.632 0.295,2.07l-1.776,0l0,-5.32c0,-1.33 -0.147,-2.669 -1.772,-2.669c-1.629,0 -1.923,1.331 -1.923,2.669l0,3.25c0,0.74 0,1.624 0.442,2.07l-2.218,0c0.299,-0.446 0.299,-1.33 0.299,-2.07l0,-4.732c0,-0.884 0,-1.624 -0.446,-2.071l1.923,0Z" style="fill:#263B80;fill-rule:nonzero;"/><path d="M283.71,37.366l-5.771,7.989c-0.147,0 -0.147,0.143 -0.147,0.143c0,0.152 0,0.152 0.295,0.152l2.517,0c1.33,0 2.659,-0.295 3.4,-1.036l-0.294,1.625l-8.136,0l5.618,-7.837c0.153,0 0.299,-0.152 0.299,-0.295c0,0 -0.151,0 -0.445,0l-2.219,0c-1.035,0 -1.624,0.295 -2.365,0.884l0.146,-1.625l7.102,0Z" style="fill:#263B80;fill-rule:nonzero;"/><path d="M286.815,40.624c0,0.295 0,0.59 0,1.035c0,1.92 0.884,3.696 2.955,3.696c0.888,0 1.923,-0.446 2.371,-1.036l0,0.295c0,1.036 -1.63,2.071 -3.107,2.071c-2.664,0 -3.846,-2.366 -3.846,-4.882c0,-2.517 1.329,-4.732 4.14,-4.732c1.923,0 2.959,1.331 2.959,2.66c0,0.893 -0.594,0.893 -1.776,0.893l-3.696,0l0,0Zm2.219,-0.598c1.03,0 1.477,0 1.477,-0.74c0,-0.733 -0.447,-1.625 -1.477,-1.625c-1.187,0 -1.776,1.33 -2.071,2.365l2.071,0Z" style="fill:#263B80;fill-rule:nonzero;"/></g></svg>