<?xml version="1.0" encoding="UTF-8"?>
<svg width="275px" height="249px" viewBox="0 0 275 249" version="1.1" xmlns="http://www.w3.org/2000/svg" xmlns:xlink="http://www.w3.org/1999/xlink">
    <!-- Generator: sketchtool 61 (101010) - https://sketch.com -->
    <title>481B50A5-4C6F-4CCC-AEAC-6D3CC1B2C951</title>
    <desc>Created with sketchtool.</desc>
    <defs>
        <polygon id="path-1" points="0 0.566770143 263.491701 0.566770143 263.491701 248.697985 0 248.697985"></polygon>
        <polygon id="path-3" points="0 0.566770143 263.491701 0.566770143 263.491701 248.697985 0 248.697985"></polygon>
        <path d="M273.814936,1.35779547 L0,1.35779547 L273.814936,1.35779547 Z" id="path-5"></path>
    </defs>
    <g id="UI-Design-" stroke="none" stroke-width="1" fill="none" fill-rule="evenodd">
        <g id="Access-Forbidden" transform="translate(-823.000000, -246.000000)">
            <g id="Group-2" transform="translate(546.000000, 216.000000)">
                <g id="Group-5" transform="translate(277.000000, 29.000000)">
                    <g id="Group-7" opacity="0.0687546503" transform="translate(6.681159, 0.000000)">
                        <g id="Group-3" transform="translate(0.000000, 0.520289)">
                            <mask id="mask-2" fill="white">
                                <use xlink:href="#path-1"></use>
                            </mask>
                            <g id="Clip-2"></g>
                            <path d="M0.081761194,133.272203 C0.081761194,133.272203 1.60731343,180.400515 41.0838507,211.812408 C80.5597313,243.223647 135.261582,245.473057 179.545284,248.456781 C223.829642,251.44116 257.842955,226.458115 262.969284,188.692637 C268.095612,150.927159 234.256985,139.840454 215.897821,96.8516585 C197.538657,53.8622086 199.172567,39.7309142 160.325821,13.2910216 C121.479075,-13.1495254 60.7104776,3.08588672 28.8492239,48.3823398 C-3.01137313,93.6781384 0.081761194,133.272203 0.081761194,133.272203" id="Fill-1" fill="#FF9302" mask="url(#mask-2)"></path>
                        </g>
                        <g id="Group-6" transform="translate(0.000000, 0.520289)">
                            <mask id="mask-4" fill="white">
                                <use xlink:href="#path-3"></use>
                            </mask>
                            <g id="Clip-5"></g>
                            <path d="M0.081761194,133.272203 C0.081761194,133.272203 1.60731343,180.400515 41.0838507,211.812408 C80.5597313,243.223647 135.261582,245.473057 179.545284,248.456781 C223.829642,251.44116 257.842955,226.458115 262.969284,188.692637 C268.095612,150.927159 234.256985,139.840454 215.897821,96.8516585 C197.538657,53.8622086 199.172567,39.7309142 160.325821,13.2910216 C121.479075,-13.1495254 60.7104776,3.08588672 28.8492239,48.3823398 C-3.01137313,93.6781384 0.081761194,133.272203 0.081761194,133.272203" id="Fill-4" fill="#FF9302" mask="url(#mask-4)"></path>
                        </g>
                    </g>
                    <g id="Group-171" transform="translate(0.681159, 11.000000)">
                        <g id="Group-6" transform="translate(0.000000, 0.522542)">
                            <mask id="mask-6" fill="white">
                                <use xlink:href="#path-5"></use>
                            </mask>
                            <g id="Clip-4"></g>
                            <polygon id="Stroke-3" stroke="#1A2E35" stroke-width="1.166" stroke-linecap="round" stroke-linejoin="round" mask="url(#mask-6)" points="17.229957 105.571163 84.7045823 105.571163 84.7045823 49.3287456 17.229957 49.3287456"></polygon>
                            <path d="M57.9838277,72.6844215 C57.9838277,68.68212 54.6951737,65.4375806 50.6381427,65.4375806 C46.5811117,65.4375806 43.2918038,68.68212 43.2918038,72.6844215 C43.2918038,75.4413575 44.8527537,77.8378623 47.1493838,79.0628012 L45.9154029,91.8366925 L55.3602286,91.8366925 L54.1262477,79.0628012 C56.4235317,77.8378623 57.9838277,75.4413575 57.9838277,72.6844215 Z" id="Stroke-5" stroke="#1A2E35" stroke-width="1.166" stroke-linecap="round" stroke-linejoin="round" mask="url(#mask-6)"></path>
                        </g>
                        <polygon id="Fill-7" fill="#1A2E35" points="127.212399 107.424092 110.415062 106.305549 110.415062 106.030877 108.34981 106.167882 106.284558 106.030877 106.284558 106.305549 89.4865673 107.424092 77.095057 210.539212 89.4865673 210.539212 107.936498 128.325626 108.762468 128.325626 127.212399 210.539212 139.604563 210.539212"></polygon>
                        <polygon id="Stroke-8" stroke="#1A2E35" stroke-width="1.166" stroke-linecap="round" stroke-linejoin="round" points="127.212399 107.424092 110.415062 106.305549 110.415062 106.030877 108.34981 106.167882 106.284558 106.030877 106.284558 106.305549 89.4865673 107.424092 77.095057 210.539212 89.4865673 210.539212 107.936498 128.325626 108.762468 128.325626 127.212399 210.539212 139.604563 210.539212"></polygon>
                        <g id="Group-134" transform="translate(62.000000, 19.522542)">
                            <path d="M14.650094,191.048429 L11.6217074,195.765003 L2.2592778,199.927423 C2.2592778,199.927423 0.607430549,200.759643 0.607430549,202.70215 L0.607430549,206.308438 L27.3168721,206.308438 C27.3168721,206.308438 27.59218,203.256305 27.3168721,200.481578 C27.0415642,197.70751 27.0415642,191.048429 27.0415642,191.048429 L14.650094,191.048429 Z" id="Fill-9" fill="#4B4B4B"></path>
                            <path d="M14.650094,191.048429 L11.6217074,195.765003 L2.2592778,199.927423 C2.2592778,199.927423 0.607430549,200.759643 0.607430549,202.70215 L0.607430549,206.308438 L27.3168721,206.308438 C27.3168721,206.308438 27.59218,203.256305 27.3168721,200.481578 C27.0415642,197.70751 27.0415642,191.048429 27.0415642,191.048429 L14.650094,191.048429 Z" id="Stroke-11" stroke="#1A2E35" stroke-width="1.166" stroke-linecap="round" stroke-linejoin="round"></path>
                            <path d="M0.607365155,203.256568 L0.607365155,206.308702 L27.3168067,206.308702 C27.3168067,206.308702 27.4364773,204.967134 27.4384391,203.256568 L0.607365155,203.256568 Z" id="Fill-13" fill="#1A2E35"></path>
                            <path d="M0.607365155,203.256568 L0.607365155,206.308702 L27.3168067,206.308702 C27.3168067,206.308702 27.4364773,204.967134 27.4384391,203.256568 L0.607365155,203.256568 Z" id="Stroke-15" stroke="#1A2E35" stroke-width="1.166" stroke-linecap="round" stroke-linejoin="round"></path>
                            <path d="M77.1050263,191.048429 L80.1340668,195.765003 L89.4958425,199.927423 C89.4958425,199.927423 91.1483437,200.759643 91.1483437,202.70215 L91.1483437,206.308438 L64.4389021,206.308438 C64.4389021,206.308438 64.1635943,203.256305 64.4389021,200.481578 C64.71421,197.70751 64.71421,191.048429 64.71421,191.048429 L77.1050263,191.048429 Z" id="Fill-17" fill="#4B4B4B"></path>
                            <path d="M77.1050263,191.048429 L80.1340668,195.765003 L89.4958425,199.927423 C89.4958425,199.927423 91.1483437,200.759643 91.1483437,202.70215 L91.1483437,206.308438 L64.4389021,206.308438 C64.4389021,206.308438 64.1635943,203.256305 64.4389021,200.481578 C64.71421,197.70751 64.71421,191.048429 64.71421,191.048429 L77.1050263,191.048429 Z" id="Stroke-19" stroke="#1A2E35" stroke-width="1.166" stroke-linecap="round" stroke-linejoin="round"></path>
                            <path d="M91.1480821,203.256568 L91.1480821,206.308702 L64.4392945,206.308702 C64.4392945,206.308702 64.3189699,204.967134 64.3176621,203.256568 L91.1480821,203.256568 Z" id="Fill-21" fill="#1A2E35"></path>
                            <path d="M91.1480821,203.256568 L91.1480821,206.308702 L64.4392945,206.308702 C64.4392945,206.308702 64.3189699,204.967134 64.3176621,203.256568 L91.1480821,203.256568 Z" id="Stroke-23" stroke="#1A2E35" stroke-width="1.166" stroke-linecap="round" stroke-linejoin="round"></path>
                            <path d="M19.9272425,40.632728 C19.9272425,40.632728 0.331991885,68.4136025 0.331991885,70.4483583 C0.331991885,72.4831142 3.45258377,88.2056883 8.40877947,89.6856305 C13.3649752,91.1649138 16.1187079,88.5753444 17.0368368,83.3962055 C17.9543117,78.2177255 14.8337198,70.8186733 14.8337198,70.8186733 L24.0123928,62.4951514 L19.9272425,40.632728 Z" id="Fill-25" fill="#FF9302"></path>
                            <path d="M16.1189041,82.6568274 C16.1189041,82.6568274 21.8094721,81.7316988 23.2782167,82.1013549 C24.7463074,82.4716699 25.8481928,85.9863679 25.8481928,85.9863679 C25.8481928,85.9863679 26.3988086,91.1648479 25.4806797,92.275134 C24.5632048,93.3847612 20.1576248,94.6795459 18.322021,95.049861 C16.4864172,95.4195171 12.631453,91.1648479 11.1620544,88.5752785 C9.69396372,85.9863679 12.2639399,81.5465413 16.1189041,82.6568274" id="Fill-27" fill="#CDCDCD"></path>
                            <path d="M16.1189041,82.6568274 C16.1189041,82.6568274 21.8094721,81.7316988 23.2782167,82.1013549 C24.7463074,82.4716699 25.8481928,85.9863679 25.8481928,85.9863679 C25.8481928,85.9863679 26.3988086,91.1648479 25.4806797,92.275134 C24.5632048,93.3847612 20.1576248,94.6795459 18.322021,95.049861 C16.4864172,95.4195171 12.631453,91.1648479 11.1620544,88.5752785 C9.69396372,85.9863679 12.2639399,81.5465413 16.1189041,82.6568274 Z" id="Stroke-29" stroke="#1A2E35" stroke-width="1.166" stroke-linecap="round" stroke-linejoin="round"></path>
                            <polygon id="Fill-31" fill="#FF9302" points="24.0530024 39.3728003 19.9273079 40.6326621 26.4287589 84.348943 65.0627589 84.348943 70.9396993 40.8843709 65.6879236 38.8687238 46.3084726 34.5857209"></polygon>
                            <polygon id="Fill-33" fill="#1A2E35" points="67.1886458 53.9871968 66.3136768 60.2865057 59.5617675 61.9239306 52.6849561 59.1524983 53.1852186 53.4831204"></polygon>
                            <polygon id="Stroke-35" stroke="#1A2E35" stroke-width="1.166" stroke-linecap="round" stroke-linejoin="round" points="67.1886458 53.9871968 66.3136768 60.2865057 59.5617675 61.9239306 52.6849561 59.1524983 53.1852186 53.4831204"></polygon>
                            <path d="M58.8117007,59.0893734 C58.8117007,58.4284732 59.3433523,57.8927683 59.999252,57.8927683 C60.6551518,57.8927683 61.1874573,58.4284732 61.1874573,59.0893734 C61.1874573,59.7502737 60.6551518,60.2859786 59.999252,60.2859786 C59.3433523,60.2859786 58.8117007,59.7502737 58.8117007,59.0893734" id="Fill-37" fill="#4B4B4B"></path>
                            <path d="M58.8117007,59.0893734 C58.8117007,58.4284732 59.3433523,57.8927683 59.999252,57.8927683 C60.6551518,57.8927683 61.1874573,58.4284732 61.1874573,59.0893734 C61.1874573,59.7502737 60.6551518,60.2859786 59.999252,60.2859786 C59.3433523,60.2859786 58.8117007,59.7502737 58.8117007,59.0893734 Z" id="Stroke-39" stroke="#1A2E35" stroke-width="1.166" stroke-linecap="round" stroke-linejoin="round"></path>
                            <polygon id="Fill-41" fill="#1A2E35" points="42.1825819 42.6484409 45.8086678 46.9321027 41.1827107 76.6640498 46.0584721 84.4755881 51.8098563 76.2864866 46.934095 47.0579571 51.0597895 43.026663 46.6836368 37.3572851"></polygon>
                            <polygon id="Stroke-43" stroke="#1A2E35" stroke-width="1.166" stroke-linecap="round" stroke-linejoin="round" points="42.1825819 42.6484409 45.8086678 46.9321027 41.1827107 76.6640498 46.0584721 84.4755881 51.8098563 76.2864866 46.934095 47.0579571 51.0597895 43.026663 46.6836368 37.3572851"></polygon>
                            <polygon id="Fill-45" fill="#1A2E35" points="38.6816597 35.2155859 22.0526716 39.3727344 22.5529341 41.3890404 38.8065618 36.8530109"></polygon>
                            <polygon id="Stroke-47" stroke="#1A2E35" stroke-width="1.166" stroke-linecap="round" stroke-linejoin="round" points="38.6816597 35.2155859 22.0526716 39.3727344 22.5529341 41.3890404 38.8065618 36.8530109"></polygon>
                            <polygon id="Fill-49" fill="#1A2E35" points="52.3099881 34.7114436 68.9389761 38.869251 68.4393675 40.884898 52.1850859 36.3495274"></polygon>
                            <polygon id="Stroke-51" stroke="#1A2E35" stroke-width="1.166" stroke-linecap="round" stroke-linejoin="round" points="52.3099881 34.7114436 68.9389761 38.869251 68.4393675 40.884898 52.1850859 36.3495274"></polygon>
                            <path d="M68.9391069,38.8689215 C68.9391069,38.8689215 75.2286821,40.2981266 79.0836463,42.51804 C82.9379566,44.7379533 83.8567394,49.7319347 81.6529685,55.2807296 C79.4505055,60.8301835 72.658052,60.0902124 69.5381141,58.6102702 C66.4168683,57.1303279 65.4993933,51.581533 66.0500091,49.177121" id="Fill-53" fill="#FF9302"></path>
                            <polygon id="Fill-55" fill="#FF9302" points="39.4320535 33.073755 37.5565594 34.3336168 38.056168 47.0580889 46.1833088 41.2628565 54.68581 47.1839433 55.4358768 34.5853256 53.1850224 32.6955329"></polygon>
                            <path d="M55.8568167,17.9397973 C55.8568167,17.9397973 60.4749265,16.8084256 61.3479337,12.1557667 C62.2215947,7.50244877 53.8603442,1.84361358 48.1194229,0.838096289 C42.3785017,-0.168079926 33.8923489,5.86831844 32.5197332,10.0175598 C31.1464635,14.1674602 36.5133322,18.3173605 42.2535995,19.1976823 C47.9945208,20.0780041 55.8568167,17.9397973 55.8568167,17.9397973" id="Fill-57" fill="#1A2E35"></path>
                            <path d="M55.8568167,17.9397973 C55.8568167,17.9397973 60.4749265,16.8084256 61.3479337,12.1557667 C62.2215947,7.50244877 53.8603442,1.84361358 48.1194229,0.838096289 C42.3785017,-0.168079926 33.8923489,5.86831844 32.5197332,10.0175598 C31.1464635,14.1674602 36.5133322,18.3173605 42.2535995,19.1976823 C47.9945208,20.0780041 55.8568167,17.9397973 55.8568167,17.9397973 Z" id="Stroke-59" stroke="#1A2E35" stroke-width="1.166" stroke-linecap="round" stroke-linejoin="round"></path>
                            <path d="M38.6347723,18.6945942 C38.6347723,18.6945942 36.1386912,14.7957437 35.5148344,18.1911766 C34.8909776,21.5866095 37.5113069,23.0955444 38.6347723,22.96969 C39.7582377,22.8438356 38.6347723,18.6945942 38.6347723,18.6945942" id="Fill-61" fill="#CDCDCD"></path>
                            <path d="M38.6347723,18.6945942 C38.6347723,18.6945942 36.1386912,14.7957437 35.5148344,18.1911766 C34.8909776,21.5866095 37.5113069,23.0955444 38.6347723,22.96969 C39.7582377,22.8438356 38.6347723,18.6945942 38.6347723,18.6945942 Z" id="Stroke-63" stroke="#1A2E35" stroke-width="1.166" stroke-linecap="round" stroke-linejoin="round"></path>
                            <path d="M54.8586458,18.6945942 C54.8586458,18.6945942 57.354073,14.7957437 57.9785838,18.1911766 C58.6024406,21.5866095 55.9814573,23.0955444 54.8586458,22.96969 C53.7351804,22.8438356 54.8586458,18.6945942 54.8586458,18.6945942" id="Fill-65" fill="#CDCDCD"></path>
                            <path d="M54.8586458,18.6945942 C54.8586458,18.6945942 57.354073,14.7957437 57.9785838,18.1911766 C58.6024406,21.5866095 55.9814573,23.0955444 54.8586458,22.96969 C53.7351804,22.8438356 54.8586458,18.6945942 54.8586458,18.6945942 Z" id="Stroke-67" stroke="#1A2E35" stroke-width="1.166" stroke-linecap="round" stroke-linejoin="round"></path>
                            <polygon id="Fill-69" fill="#CDCDCD" points="39.182053 26.3966853 39.182053 34.7116412 46.1837666 41.2626589 54.0604492 34.4592735 54.0604492 26.6483941"></polygon>
                            <polygon id="Stroke-71" stroke="#1A2E35" stroke-width="1.166" stroke-linecap="round" stroke-linejoin="round" points="39.182053 26.3966853 39.182053 34.7116412 46.1837666 41.2626589 54.0604492 34.4592735 54.0604492 26.6483941"></polygon>
                            <path d="M38.1356869,16.179549 C38.1356869,16.179549 37.7609804,23.9759321 38.3848372,26.4910432 C39.008694,29.0054953 43.1271952,34.2874263 46.3720353,35.418798 C49.6168754,36.5508286 54.1100831,29.7599628 55.1079924,27.4965605 C56.1065556,25.2331582 55.7325031,15.6761315 55.7325031,15.6761315 C55.7325031,15.6761315 54.3592334,12.406553 51.6140019,11.4010357 C48.8681165,10.3948594 40.3819637,8.6342158 38.1356869,16.179549" id="Fill-73" fill="#CDCDCD"></path>
                            <path d="M38.1356869,16.179549 C38.1356869,16.179549 37.7609804,23.9759321 38.3848372,26.4910432 C39.008694,29.0054953 43.1271952,34.2874263 46.3720353,35.418798 C49.6168754,36.5508286 54.1100831,29.7599628 55.1079924,27.4965605 C56.1065556,25.2331582 55.7325031,15.6761315 55.7325031,15.6761315 C55.7325031,15.6761315 54.3592334,12.406553 51.6140019,11.4010357 C48.8681165,10.3948594 40.3819637,8.6342158 38.1356869,16.179549 Z" id="Stroke-75" stroke="#1A2E35" stroke-width="1.166" stroke-linecap="round" stroke-linejoin="round"></path>
                            <path d="M43.3272348,20.3183794 C43.3272348,20.9127285 43.0571585,21.3937426 42.7236501,21.3937426 C42.3907957,21.3937426 42.1207193,20.9127285 42.1207193,20.3183794 C42.1207193,19.7246893 42.3907957,19.2430163 42.7236501,19.2430163 C43.0571585,19.2430163 43.3272348,19.7246893 43.3272348,20.3183794" id="Fill-77" fill="#1A2E35"></path>
                            <path d="M50.9845212,20.3183794 C50.9845212,20.9127285 50.7144449,21.3937426 50.3815905,21.3937426 C50.0480821,21.3937426 49.7780057,20.9127285 49.7780057,20.3183794 C49.7780057,19.7246893 50.0480821,19.2430163 50.3815905,19.2430163 C50.7144449,19.2430163 50.9845212,19.7246893 50.9845212,20.3183794" id="Fill-79" fill="#1A2E35"></path>
                            <g id="Group-84" transform="translate(43.284010, 22.853258)">
                                <path d="M1.34410406,0.470207824 C0.781717422,0.470207824 0.325922673,0.837887148 0.325922673,1.29122653 C0.325922673,1.74456591 0.781717422,2.11158631 1.34410406,2.11158631 C1.62791313,2.11158631 1.88360286,2.01801917 2.06801337,1.86712569 C2.39105871,2.30926337 2.98091074,2.60907357 3.66296802,2.60907357 C4.31821384,2.60907357 4.89171742,2.33364354 5.22195609,1.91983957 C5.39851933,2.03778688 5.62216611,2.11158631 5.86870072,2.11158631 C6.43108735,2.11158631 6.8868821,1.74456591 6.8868821,1.29122653 C6.8868821,0.837887148 6.43108735,0.470207824 5.86870072,0.470207824" id="Fill-81" fill="#CDCDCD"></path>
                                <path d="M1.34410406,0.470207824 C0.781717422,0.470207824 0.325922673,0.837887148 0.325922673,1.29122653 C0.325922673,1.74456591 0.781717422,2.11158631 1.34410406,2.11158631 C1.62791313,2.11158631 1.88360286,2.01801917 2.06801337,1.86712569 C2.39105871,2.30926337 2.98091074,2.60907357 3.66296802,2.60907357 C4.31821384,2.60907357 4.89171742,2.33364354 5.22195609,1.91983957 C5.39851933,2.03778688 5.62216611,2.11158631 5.86870072,2.11158631 C6.43108735,2.11158631 6.8868821,1.74456591 6.8868821,1.29122653 C6.8868821,0.837887148 6.43108735,0.470207824 5.86870072,0.470207824" id="Stroke-83" stroke="#1A2E35" stroke-width="1.166" stroke-linecap="round" stroke-linejoin="round"></path>
                            </g>
                            <g id="Group-88" transform="translate(45.245823, 28.124646)">
                                <line x1="0.375948926" y1="0.39682182" x2="2.98385346" y2="0.39682182" id="Fill-85" fill="#CDCDCD"></line>
                                <line x1="0.375948926" y1="0.39682182" x2="2.98385346" y2="0.39682182" id="Stroke-87" stroke="#1A2E35" stroke-width="1.166" stroke-linecap="round" stroke-linejoin="round"></line>
                            </g>
                            <path d="M37.8508315,18.0739541 C37.8508315,18.0739541 37.9436907,20.5989491 38.7787695,19.9439791 C39.6145021,19.289668 39.8930797,14.9875564 39.1502062,14.4261535 C38.4079866,13.8654096 37.8508315,16.7646731 37.8508315,18.0739541" id="Fill-89" fill="#1A2E35"></path>
                            <path d="M37.8508315,18.0739541 C37.8508315,18.0739541 37.9436907,20.5989491 38.7787695,19.9439791 C39.6145021,19.289668 39.8930797,14.9875564 39.1502062,14.4261535 C38.4079866,13.8654096 37.8508315,16.7646731 37.8508315,18.0739541 Z" id="Stroke-91" stroke="#1A2E35" stroke-width="1.166" stroke-linecap="round" stroke-linejoin="round"></path>
                            <path d="M53.9598081,18.0739541 C53.9598081,18.0739541 54.0526673,20.5989491 54.8877461,19.9439791 C55.7234788,19.289668 56.0020563,14.9875564 55.2591828,14.4261535 C54.5169632,13.8654096 53.9598081,16.7646731 53.9598081,18.0739541" id="Fill-93" fill="#1A2E35"></path>
                            <path d="M53.9598081,18.0739541 C53.9598081,18.0739541 54.0526673,20.5989491 54.8877461,19.9439791 C55.7234788,19.289668 56.0020563,14.9875564 55.2591828,14.4261535 C54.5169632,13.8654096 53.9598081,16.7646731 53.9598081,18.0739541 Z" id="Stroke-95" stroke="#1A2E35" stroke-width="1.166" stroke-linecap="round" stroke-linejoin="round"></path>
                            <path d="M37.8508315,16.0160701 C37.8508315,16.0160701 38.1326788,16.2433987 38.1274473,16.3567336 C39.3352706,17.0169749 42.1164687,18.2300531 46.6142539,18.4751727 C50.4757575,18.6853693 53.7846835,17.3022888 55.7497671,16.2163829 C55.739958,15.8770372 55.7321107,15.6773834 55.7321107,15.6760656 C55.6183255,12.7273828 53.4465976,10.7670853 50.7569508,10.0126179 C48.1863208,9.29109666 45.2344449,9.41299751 42.7527504,10.4145613 C41.4690702,10.9324751 40.3004831,11.7139584 39.4425165,12.8176553 C39.1567456,13.1859936 37.3943828,15.6483908 37.8508315,16.0160701" id="Fill-97" fill="#4B4B4B"></path>
                            <path d="M37.8508315,16.0160701 C37.8508315,16.0160701 38.1326788,16.2433987 38.1274473,16.3567336 C39.3352706,17.0169749 42.1164687,18.2300531 46.6142539,18.4751727 C50.4757575,18.6853693 53.7846835,17.3022888 55.7497671,16.2163829 C55.739958,15.8770372 55.7321107,15.6773834 55.7321107,15.6760656 C55.6183255,12.7273828 53.4465976,10.7670853 50.7569508,10.0126179 C48.1863208,9.29109666 45.2344449,9.41299751 42.7527504,10.4145613 C41.4690702,10.9324751 40.3004831,11.7139584 39.4425165,12.8176553 C39.1567456,13.1859936 37.3943828,15.6483908 37.8508315,16.0160701 Z" id="Stroke-99" stroke="#1A2E35" stroke-width="1.166" stroke-linecap="round" stroke-linejoin="round"></path>
                            <path d="M38.1356869,16.179549 C38.1356869,16.179549 41.2556248,17.0598709 46.6218396,16.8081621 C51.9880544,16.5564533 55.7240019,16.180208 55.7240019,16.180208 C55.7240019,16.180208 52.0652191,19.9235525 46.6990043,20.1746023 C40.8979208,20.4467377 38.1356869,16.179549 38.1356869,16.179549" id="Fill-101" fill="#4B4B4B"></path>
                            <path d="M38.1356869,16.179549 C38.1356869,16.179549 41.2556248,17.0598709 46.6218396,16.8081621 C51.9880544,16.5564533 55.7240019,16.180208 55.7240019,16.180208 C55.7240019,16.180208 52.0652191,19.9235525 46.6990043,20.1746023 C40.8979208,20.4467377 38.1356869,16.179549 38.1356869,16.179549 Z" id="Stroke-103" stroke="#1A2E35" stroke-width="1.166" stroke-linecap="round" stroke-linejoin="round"></path>
                            <polygon id="Fill-105" fill="#1A2E35" points="24.428232 53.9871968 25.303201 60.2865057 32.0551103 61.9239306 38.9319217 59.1524983 38.4316592 53.4831204"></polygon>
                            <polygon id="Stroke-107" stroke="#1A2E35" stroke-width="1.166" stroke-linecap="round" stroke-linejoin="round" points="24.428232 53.9871968 25.303201 60.2865057 32.0551103 61.9239306 38.9319217 59.1524983 38.4316592 53.4831204"></polygon>
                            <path d="M32.8051771,59.0893734 C32.8051771,58.4284732 32.2735255,57.8927683 31.6176258,57.8927683 C30.961726,57.8927683 30.4300745,58.4284732 30.4300745,59.0893734 C30.4300745,59.7502737 30.961726,60.2859786 31.6176258,60.2859786 C32.2735255,60.2859786 32.8051771,59.7502737 32.8051771,59.0893734" id="Fill-109" fill="#4B4B4B"></path>
                            <path d="M32.8051771,59.0893734 C32.8051771,58.4284732 32.2735255,57.8927683 31.6176258,57.8927683 C30.961726,57.8927683 30.4300745,58.4284732 30.4300745,59.0893734 C30.4300745,59.7502737 30.961726,60.2859786 31.6176258,60.2859786 C32.2735255,60.2859786 32.8051771,59.7502737 32.8051771,59.0893734 Z" id="Stroke-111" stroke="#1A2E35" stroke-width="1.166" stroke-linecap="round" stroke-linejoin="round"></path>
                            <polygon id="Fill-113" fill="#4B4B4B" points="25.8480621 90.2400487 65.4989356 90.2400487 65.4989356 83.9512827 25.8480621 83.9512827"></polygon>
                            <polygon id="Stroke-115" stroke="#1A2E35" stroke-width="1.166" stroke-linecap="round" stroke-linejoin="round" points="25.8480621 90.2400487 65.4989356 90.2400487 65.4989356 83.9512827 25.8480621 83.9512827"></polygon>
                            <path d="M33.4661776,92.0902401 L24.8387742,92.0902401 C23.8748697,92.0902401 23.0947217,91.3034854 23.0947217,90.3328911 L23.0947217,86.0782219 C23.0947217,85.1076275 23.8748697,84.3215318 24.8381203,84.3215318 L33.4661776,84.3215318 C34.4294282,84.3215318 35.2102301,85.1076275 35.2102301,86.0782219 L35.2102301,90.3328911 C35.2102301,91.3034854 34.4294282,92.0902401 33.4661776,92.0902401" id="Fill-116" fill="#4B4B4B"></path>
                            <path d="M33.4661776,92.0902401 L24.8387742,92.0902401 C23.8748697,92.0902401 23.0947217,91.3034854 23.0947217,90.3328911 L23.0947217,86.0782219 C23.0947217,85.1076275 23.8748697,84.3215318 24.8381203,84.3215318 L33.4661776,84.3215318 C34.4294282,84.3215318 35.2102301,85.1076275 35.2102301,86.0782219 L35.2102301,90.3328911 C35.2102301,91.3034854 34.4294282,92.0902401 33.4661776,92.0902401 Z" id="Stroke-117" stroke="#1A2E35" stroke-width="1.166" stroke-linecap="round" stroke-linejoin="round"></path>
                            <path d="M65.0403943,92.0902401 L56.412337,92.0902401 C55.4490864,92.0902401 54.6689384,91.3034854 54.6689384,90.3328911 L54.6689384,86.0782219 C54.6689384,85.1076275 55.4490864,84.3215318 56.412337,84.3215318 L65.0403943,84.3215318 C66.0036449,84.3215318 66.7844468,85.1076275 66.7844468,86.0782219 L66.7844468,90.3328911 C66.7844468,91.3034854 66.0036449,92.0902401 65.0403943,92.0902401" id="Fill-118" fill="#4B4B4B"></path>
                            <path d="M65.0403943,92.0902401 L56.412337,92.0902401 C55.4490864,92.0902401 54.6689384,91.3034854 54.6689384,90.3328911 L54.6689384,86.0782219 C54.6689384,85.1076275 55.4490864,84.3215318 56.412337,84.3215318 L65.0403943,84.3215318 C66.0036449,84.3215318 66.7844468,85.1076275 66.7844468,86.0782219 L66.7844468,90.3328911 C66.7844468,91.3034854 66.0036449,92.0902401 65.0403943,92.0902401 Z" id="Stroke-119" stroke="#1A2E35" stroke-width="1.166" stroke-linecap="round" stroke-linejoin="round"></path>
                            <polygon id="Fill-120" fill="#FFFFFF" points="42.0022912 89.8703926 50.6303484 89.8703926 50.6303484 84.3215977 42.0022912 84.3215977"></polygon>
                            <polygon id="Stroke-121" stroke="#1A2E35" stroke-width="1.166" stroke-linecap="round" stroke-linejoin="round" points="42.0022912 89.8703926 50.6303484 89.8703926 50.6303484 84.3215977 42.0022912 84.3215977"></polygon>
                            <path d="M14.8340468,70.8184098 C14.8340468,70.8184098 9.32658138,70.4480948 7.30787494,66.9340556" id="Stroke-122" stroke="#1A2E35" stroke-width="1.166" stroke-linecap="round" stroke-linejoin="round"></path>
                            <path d="M85.1412697,44.9227813 C85.1412697,50.2350228 81.0724678,54.541088 76.054148,54.541088 C71.0358282,54.541088 66.9676802,50.2350228 66.9676802,44.9227813 C66.9676802,39.6105399 71.0358282,35.3044747 76.054148,35.3044747 C81.0724678,35.3044747 85.1412697,39.6105399 85.1412697,44.9227813" id="Fill-123" fill="#FF9302"></path>
                            <path d="M83.1692544,40.0510303 C83.1692544,43.5986745 79.9839227,46.4748757 76.0544095,46.4748757 C72.1248964,46.4748757 68.9395647,43.5986745 68.9395647,40.0510303 C68.9395647,36.5033861 72.1248964,33.6271849 76.0544095,33.6271849 C79.9839227,33.6271849 83.1692544,36.5033861 83.1692544,40.0510303" id="Fill-124" fill="#FF9302"></path>
                            <path d="M83.1692544,35.3272076 C83.1692544,38.8748518 79.9839227,41.751053 76.0544095,41.751053 C72.1248964,41.751053 68.9395647,38.8748518 68.9395647,35.3272076 C68.9395647,31.7795634 72.1248964,28.9033622 76.0544095,28.9033622 C79.9839227,28.9033622 83.1692544,31.7795634 83.1692544,35.3272076" id="Fill-125" fill="#CDCDCD"></path>
                            <path d="M83.1692544,35.3272076 C83.1692544,38.8748518 79.9839227,41.751053 76.0544095,41.751053 C72.1248964,41.751053 68.9395647,38.8748518 68.9395647,35.3272076 C68.9395647,31.7795634 72.1248964,28.9033622 76.0544095,28.9033622 C79.9839227,28.9033622 83.1692544,31.7795634 83.1692544,35.3272076 Z" id="Stroke-126" stroke="#1A2E35" stroke-width="1.166" stroke-linecap="round" stroke-linejoin="round"></path>
                            <path d="M64.6242936,21.4760422 C64.6242936,21.4760422 64.7446181,30.9526802 65.2272243,33.7471749 C65.7091766,36.5416695 67.6382936,40.1868344 70.2913198,40.1868344 C72.9443461,40.1868344 75.4763938,39.2142633 75.4763938,39.2142633 C75.4763938,39.2142633 78.6107184,40.9156038 81.6260263,40.4293183 C84.6400263,39.9436917 84.158074,35.6909993 84.158074,33.8690757 C84.158074,32.0464933 83.7957924,18.3171628 83.7957924,18.3171628 C83.7957924,18.3171628 84.0370955,16.9808659 82.8312339,16.7377231 C81.6260263,16.4945804 81.0230955,16.4945804 81.0230955,16.4945804 L81.0230955,13.5788438 C81.0230955,13.5788438 80.5398353,12.6069316 78.973,12.6069316 C77.4048568,12.6069316 77.2845322,12.9713163 77.2845322,12.9713163 L77.2845322,10.2987225 C77.2845322,10.2987225 75.9818878,8.17039954 74.2698783,9.20490946 C73.0646706,9.93367888 73.0646706,11.1487338 73.0646706,11.1487338 L72.9443461,13.7007446 C72.9443461,13.7007446 70.0500167,12.6069316 69.8087136,14.3082721 C69.5680644,16.0089537 69.0854582,26.457504 69.0854582,26.457504 C69.0854582,26.457504 68.7238305,23.1773827 68.1208998,21.597943 C67.517969,20.0185033 64.6242936,20.0185033 64.6242936,21.4760422" id="Fill-127" fill="#CDCDCD"></path>
                            <path d="M64.6242936,21.4760422 C64.6242936,21.4760422 64.7446181,30.9526802 65.2272243,33.7471749 C65.7091766,36.5416695 67.6382936,40.1868344 70.2913198,40.1868344 C72.9443461,40.1868344 75.4763938,39.2142633 75.4763938,39.2142633 C75.4763938,39.2142633 78.6107184,40.9156038 81.6260263,40.4293183 C84.6400263,39.9436917 84.158074,35.6909993 84.158074,33.8690757 C84.158074,32.0464933 83.7957924,18.3171628 83.7957924,18.3171628 C83.7957924,18.3171628 84.0370955,16.9808659 82.8312339,16.7377231 C81.6260263,16.4945804 81.0230955,16.4945804 81.0230955,16.4945804 L81.0230955,13.5788438 C81.0230955,13.5788438 80.5398353,12.6069316 78.973,12.6069316 C77.4048568,12.6069316 77.2845322,12.9713163 77.2845322,12.9713163 L77.2845322,10.2987225 C77.2845322,10.2987225 75.9818878,8.17039954 74.2698783,9.20490946 C73.0646706,9.93367888 73.0646706,11.1487338 73.0646706,11.1487338 L72.9443461,13.7007446 C72.9443461,13.7007446 70.0500167,12.6069316 69.8087136,14.3082721 C69.5680644,16.0089537 69.0854582,26.457504 69.0854582,26.457504 C69.0854582,26.457504 68.7238305,23.1773827 68.1208998,21.597943 C67.517969,20.0185033 64.6242936,20.0185033 64.6242936,21.4760422 Z" id="Stroke-128" stroke="#1A2E35" stroke-width="1.166" stroke-linecap="round" stroke-linejoin="round"></path>
                            <line x1="72.9441499" y1="13.700547" x2="73.185453" y2="24.8778666" id="Stroke-129" stroke="#1A2E35" stroke-width="1.166" stroke-linecap="round" stroke-linejoin="round"></line>
                            <line x1="77.2844668" y1="12.9714481" x2="77.4054453" y2="24.999438" id="Stroke-130" stroke="#1A2E35" stroke-width="1.166" stroke-linecap="round" stroke-linejoin="round"></line>
                            <line x1="81.0228993" y1="16.4948439" x2="80.7815962" y2="24.8783279" id="Stroke-131" stroke="#1A2E35" stroke-width="1.166" stroke-linecap="round" stroke-linejoin="round"></line>
                            <line x1="71.3763337" y1="24.7564929" x2="82.3487585" y2="25.2427785" id="Stroke-132" stroke="#1A2E35" stroke-width="1.166" stroke-linecap="round" stroke-linejoin="round"></line>
                            <path d="M69.08565,26.457504 C69.08565,26.457504 69.0738835,28.0718666 70.2653585,28.8217216 C71.4568334,29.5715765 74.1366711,31.5226491 74.4348668,34.6729624" id="Stroke-133" stroke="#1A2E35" stroke-width="1.166" stroke-linecap="round" stroke-linejoin="round"></path>
                        </g>
                        <polygon id="Fill-135" fill="#1A2E35" points="31.2548468 226.215462 21.878327 226.215462 34.3801342 138.428461 43.756654 138.428461"></polygon>
                        <polygon id="Stroke-136" stroke="#1A2E35" stroke-width="1.166" points="31.2548468 226.215462 21.878327 226.215462 34.3801342 138.428461 43.756654 138.428461"></polygon>
                        <polygon id="Fill-138" fill="#FFFFFF" points="50.0075106 226.215462 59.3840304 226.215462 46.8822232 138.428461 37.5057034 138.428461"></polygon>
                        <polygon id="Stroke-139" stroke="#1A2E35" stroke-width="1.166" points="50.0075106 226.215462 59.3840304 226.215462 46.8822232 138.428461 37.5057034 138.428461"></polygon>
                        <polygon id="Fill-141" fill="#1A2E35" points="163.566352 226.215462 154.190114 226.215462 166.692203 138.428461 176.068441 138.428461"></polygon>
                        <polygon id="Stroke-142" stroke="#1A2E35" stroke-width="1.166" points="163.566352 226.215462 154.190114 226.215462 166.692203 138.428461 176.068441 138.428461"></polygon>
                        <polygon id="Fill-144" fill="#FFFFFF" points="182.319298 226.215462 191.695817 226.215462 179.19401 138.428461 169.81749 138.428461"></polygon>
                        <polygon id="Stroke-145" stroke="#1A2E35" stroke-width="1.166" points="182.319298 226.215462 191.695817 226.215462 179.19401 138.428461 169.81749 138.428461"></polygon>
                        <polygon id="Fill-147" fill="#FF9302" points="10.418251 142.608794 188.570342 142.608794 188.570342 124.842377 10.418251 124.842377"></polygon>
                        <polygon id="Fill-148" fill="#FF9302" points="15.6273764 142.608794 193.779468 142.608794 193.779468 124.842377 15.6273764 124.842377"></polygon>
                        <polygon id="Fill-149" fill="#1A2E35" points="18.7528517 142.608794 33.8651334 142.608794 41.6730038 124.842377 26.5613768 124.842377"></polygon>
                        <polygon id="Fill-150" fill="#1A2E35" points="78.1368821 124.842377 63.0246004 124.842377 55.21673 142.608794 70.3283571 142.608794"></polygon>
                        <polygon id="Fill-151" fill="#1A2E35" points="188.570342 124.842377 173.458715 124.842377 165.65019 142.608794 180.761817 142.608794"></polygon>
                        <polygon id="Fill-152" fill="#1A2E35" points="152.106464 124.842377 136.994837 124.842377 129.186312 142.608794 144.297939 142.608794"></polygon>
                        <polygon id="Fill-153" fill="#1A2E35" points="114.60076 124.842377 99.4891334 124.842377 91.6806084 142.608794 106.79289 142.608794"></polygon>
                        <line x1="191.695817" y1="132.680502" x2="162.524715" y2="132.680502" id="Stroke-154" stroke="#1A2E35" stroke-width="1.166"></line>
                        <line x1="191.695817" y1="134.770669" x2="187.528517" y2="134.770669" id="Stroke-155" stroke="#1A2E35" stroke-width="1.166"></line>
                        <line x1="14.5855513" y1="134.770669" x2="43.756654" y2="134.770669" id="Stroke-156" stroke="#1A2E35" stroke-width="1.166"></line>
                        <line x1="14.5855513" y1="131.635419" x2="52.0912548" y2="131.635419" id="Stroke-157" stroke="#1A2E35" stroke-width="1.166"></line>
                        <polygon id="Fill-158" fill="#1A2E35" points="191.695817 226.215462 241.703422 226.215462 241.703422 222.035128 191.695817 222.035128"></polygon>
                        <polygon id="Stroke-159" stroke="#1A2E35" stroke-width="1.166" stroke-linecap="round" stroke-linejoin="round" points="191.695817 226.215462 241.703422 226.215462 241.703422 222.035128 191.695817 222.035128"></polygon>
                        <polygon id="Fill-161" fill="#FF9302" points="233.368821 222.035128 200.030418 222.035128 213.099224 149.924377 220.300016 149.924377"></polygon>
                        <polygon id="Fill-162" fill="#FFFFFF" points="208.365019 177.096544 225.034221 177.096544 223.438076 167.690794 209.960521 167.690794"></polygon>
                        <polygon id="Stroke-163" stroke="#1A2E35" stroke-width="1.166" stroke-linecap="round" stroke-linejoin="round" points="208.365019 177.096544 225.034221 177.096544 223.438076 167.690794 209.960521 167.690794"></polygon>
                        <line x1="228.159696" y1="209.494128" x2="229.201521" y2="214.719545" id="Fill-164" fill="#FF9302"></line>
                        <line x1="218.78327" y1="154.104711" x2="227.117871" y2="204.268712" id="Fill-165" fill="#FF9302"></line>
                        <g id="Group-170" transform="translate(0.000000, 225.170379)" stroke="#1A2E35" stroke-linecap="round" stroke-linejoin="round" stroke-width="1.166">
                            <line x1="268.913605" y1="0.630283505" x2="273.433624" y2="0.630283505" id="Stroke-166"></line>
                            <line x1="0.381376611" y1="0.630283505" x2="262.604608" y2="0.630283505" id="Stroke-168"></line>
                        </g>
                    </g>
                </g>
            </g>
        </g>
    </g>
</svg>