<?xml version="1.0" encoding="UTF-8"?>
<svg width="571px" height="266px" viewBox="0 0 571 266" version="1.1" xmlns="http://www.w3.org/2000/svg" xmlns:xlink="http://www.w3.org/1999/xlink">
    <!-- Generator: sketchtool 61 (101010) - https://sketch.com -->
    <title>840CFE92-1C75-4CF7-B48A-1D8571901D07</title>
    <desc>Created with sketchtool.</desc>
    <defs>
        <rect id="path-1" x="0" y="0" width="571" height="266"></rect>
        <polygon id="path-3" points="0 0.332863548 425.422676 0.332863548 425.422676 71.3928635 0 71.3928635"></polygon>
        <polygon id="path-5" points="0 418 1157.544 418 1157.544 0 0 0"></polygon>
    </defs>
    <g id="UI-Design-" stroke="none" stroke-width="1" fill="none" fill-rule="evenodd">
        <g id="Page-not-found_2" transform="translate(-675.000000, -261.000000)">
            <g id="Group-2" transform="translate(546.000000, 216.000000)">
                <g id="Group-27">
                    <g id="Group-4" transform="translate(129.000000, 45.000000)">
                        <g id="Group-43">
                            <polygon id="Fill-2" fill="#F4800C" points="241 100.043443 234.043443 100.043443 234.043443 107 227.957378 107 227.957378 100.043443 221 100.043443 221 93.9565574 227.957378 93.9565574 227.957378 87 234.043443 87 234.043443 93.9565574 241 93.9565574"></polygon>
                            <polygon id="Fill-3" fill="#F4800C" points="367 68.0434426 360.043443 68.0434426 360.043443 75 353.957378 75 353.957378 68.0434426 347 68.0434426 347 61.9565574 353.957378 61.9565574 353.957378 55 360.043443 55 360.043443 61.9565574 367 61.9565574"></polygon>
                            <g id="Group-42">
                                <mask id="mask-2" fill="white">
                                    <use xlink:href="#path-1"></use>
                                </mask>
                                <use id="Mask" fill="#FFFFFF" xlink:href="#path-1"></use>
                                <g mask="url(#mask-2)">
                                    <g transform="translate(-303.000000, -51.000000)">
                                        <g>
                                            <path d="M709.607507,269.260719 C709.607507,266.956703 711.514358,265.052295 713.819481,265.052295 C716.126277,265.052295 718.032291,266.956703 718.032291,269.260719 C718.032291,271.564735 716.126277,273.469143 713.819481,273.469143 C711.514358,273.469143 709.607507,271.564735 709.607507,269.260719 M717.367111,250.697339 C717.367111,249.147395 716.348004,248.129147 714.08639,248.129147 C711.647394,248.129147 710.183997,249.767707 709.297089,251.850183 L703.178264,248.349015 C705.128624,243.786127 709.430125,241.217099 714.352462,241.217099 C719.406998,241.217099 724.461534,244.317823 724.461534,250.077863 C724.461534,256.678083 717.367111,258.717087 717.367111,261.773503 L710.272687,261.773503 C710.272687,256.590303 717.367111,254.596443 717.367111,250.697339" id="Fill-5" fill="#F4800C"></path>
                                            <path d="M471.982811,123.239943 C471.982811,120.935927 473.889662,119.031519 476.194785,119.031519 C478.501581,119.031519 480.407596,120.935927 480.407596,123.239943 C480.407596,125.543959 478.501581,127.448367 476.194785,127.448367 C473.889662,127.448367 471.982811,125.543959 471.982811,123.239943 M479.742415,104.676563 C479.742415,103.125783 478.722471,102.107535 476.461694,102.107535 C474.022698,102.107535 472.559301,103.746931 471.672393,105.828571 L465.553568,102.328239 C467.503928,97.7653512 471.805429,95.1963232 476.726929,95.1963232 C481.781465,95.1963232 486.836002,98.2970472 486.836002,104.057087 C486.836002,110.657307 479.742415,112.696311 479.742415,115.752727 L472.647991,115.752727 C472.647991,110.569527 479.742415,108.575667 479.742415,104.676563" id="Fill-7" fill="#F4800C"></path>
                                            <path d="M723.552789,112.650331 C723.552789,110.346315 725.458803,108.441907 727.764763,108.441907 C730.070722,108.441907 731.976737,110.346315 731.976737,112.650331 C731.976737,114.954347 730.070722,116.858755 727.764763,116.858755 C725.458803,116.858755 723.552789,114.954347 723.552789,112.650331 M731.311556,94.0869512 C731.311556,92.5361712 730.292449,91.5179232 728.031672,91.5179232 C725.592676,91.5179232 724.128442,93.1573192 723.242371,95.2389592 L717.122709,91.7386272 C719.073906,87.1757392 723.375407,84.6067112 728.296907,84.6067112 C733.351443,84.6067112 738.405979,87.7074352 738.405979,93.4674752 C738.405979,100.067695 731.311556,102.106699 731.311556,105.163115 L724.217969,105.163115 C724.217969,99.9799152 731.311556,97.9860552 731.311556,94.0869512" id="Fill-9" fill="#F4800C"></path>
                                            <path d="M733.369432,148.563219 L729.289658,148.563219 L728.669659,152.107023 L732.748597,152.107023 L733.369432,148.563219 Z M738.423968,148.563219 L737.803133,152.107023 L742.502906,152.107023 L741.749872,156.980903 L737.004916,156.980903 L735.897119,163.626267 L730.841746,163.626267 L731.95038,156.980903 L727.871442,156.980903 L726.762808,163.626267 L721.707435,163.626267 L722.816906,156.980903 L718.117133,156.980903 L718.914513,152.107023 L723.614286,152.107023 L724.235122,148.563219 L719.491003,148.563219 L720.28922,143.690175 L725.033338,143.690175 L726.141973,137.044811 L731.196509,137.044811 L730.087875,143.690175 L734.166812,143.690175 L735.275447,137.044811 L740.329983,137.044811 L739.222185,143.690175 L743.87845,143.690175 L743.079396,148.563219 L738.423968,148.563219 Z" id="Fill-11" fill="#F4800C"></path>
                                            <g id="Group-21" transform="translate(0.000000, 163.020000)">
                                                <mask id="mask-4" fill="white">
                                                    <use xlink:href="#path-3"></use>
                                                </mask>
                                                <g id="Clip-20"></g>
                                                <path d="M425.422676,39.036602 C386.226385,39.036602 359.458512,14.200714 321.696333,11.334906 C283.933317,8.469934 226.095233,52.409258 174.471359,59.095586 C122.846648,65.781914 50.1905146,15.09607 -8.36705212e-05,15.09607" id="Stroke-19" stroke="#F4800C" stroke-width="14" mask="url(#mask-4)"></path>
                                            </g>
                                            <path d="M503.986366,203.549029 L506.683067,153.818733 L483.918829,153.818733 C470.295595,153.818733 464.140791,178.534237 450.5778,185.758113 C439.296504,191.766445 429.425892,191.894353 423.690278,191.894353 C417.953827,191.894353 417.535475,202.414577 417.535475,202.414577 C417.535475,202.414577 417.953827,212.935637 423.690278,212.935637 C429.425892,212.935637 439.296504,213.062709 450.5778,219.070205 C464.140791,226.294081 470.295595,251.009585 483.918829,251.009585 L506.683067,251.009585 L503.792251,203.546521 L503.986366,203.549029 Z" id="Fill-22" fill="#EA9746"></path>
                                            <path d="M533.212228,202.414243 C533.212228,185.386595 530.79415,170.066059 526.938613,159.392847 L526.938613,144.028003 L513.85338,144.028003 C503.161124,144.028003 494.494532,170.168887 494.494532,202.414243 C494.494532,234.660435 503.161124,260.801319 513.85338,260.801319 L526.938613,260.801319 L526.938613,245.435639 C530.79415,234.762427 533.212228,219.441891 533.212228,202.414243" id="Fill-24" fill="#F4800C"></path>
                                            <path d="M545.401601,202.414243 C545.401601,234.660435 536.734171,260.801319 526.042752,260.801319 C515.350497,260.801319 506.683067,234.660435 506.683067,202.414243 C506.683067,170.168887 515.350497,144.028003 526.042752,144.028003 C536.734171,144.028003 545.401601,170.168887 545.401601,202.414243" id="Fill-26" fill="#EA9746"></path>
                                            <path d="M528.551446,180.743534 C528.551446,184.923534 527.428587,188.312678 526.042167,188.312678 C524.656583,188.312678 523.532888,184.923534 523.532888,180.743534 C523.532888,176.563534 524.656583,173.17439 526.042167,173.17439 C527.428587,173.17439 528.551446,176.563534 528.551446,180.743534" id="Fill-28" fill="#F4800C"></path>
                                            <mask id="mask-6" fill="white">
                                                <use xlink:href="#path-5"></use>
                                            </mask>
                                            <g id="Clip-31"></g>
                                            <polygon id="Fill-30" fill="#F4800C" mask="url(#mask-6)" points="526.042418 188.312344 567.449285 188.312344 567.449285 173.174892 526.042418 173.174892"></polygon>
                                            <path d="M576.27962,180.743534 C576.27962,184.923534 572.887617,188.312678 568.704091,188.312678 C564.520565,188.312678 561.129399,184.923534 561.129399,180.743534 C561.129399,176.563534 564.520565,173.17439 568.704091,173.17439 C572.887617,173.17439 576.27962,176.563534 576.27962,180.743534" id="Fill-32" fill="#F4800C" mask="url(#mask-6)"></path>
                                            <path d="M528.551446,224.085704 C528.551446,228.265704 527.428587,231.654848 526.042167,231.654848 C524.656583,231.654848 523.532888,228.265704 523.532888,224.085704 C523.532888,219.905704 524.656583,216.51656 526.042167,216.51656 C527.428587,216.51656 528.551446,219.905704 528.551446,224.085704" id="Fill-33" fill="#F4800C" mask="url(#mask-6)"></path>
                                            <polygon id="Fill-34" fill="#F4800C" mask="url(#mask-6)" points="526.042418 231.654764 567.449285 231.654764 567.449285 216.517312 526.042418 216.517312"></polygon>
                                            <path d="M576.27962,224.085704 C576.27962,228.265704 572.887617,231.654848 568.704091,231.654848 C564.520565,231.654848 561.129399,228.265704 561.129399,224.085704 C561.129399,219.905704 564.520565,216.51656 568.704091,216.51656 C572.887617,216.51656 576.27962,219.905704 576.27962,224.085704" id="Fill-35" fill="#F4800C" mask="url(#mask-6)"></path>
                                            <path d="M728.539552,202.056602 C767.735843,202.056602 805.331518,226.95101 843.093698,224.086038 C880.856713,221.22023 947.776396,187.489302 999.401107,194.17563 C1051.02582,200.861958 1096.19702,222.723358 1153.96148,178.11607" id="Stroke-36" stroke="#F4800C" stroke-width="14" mask="url(#mask-6)"></path>
                                            <path d="M730.271782,191.894019 C724.536168,191.894019 714.665557,191.766947 703.384261,185.757779 C689.821269,178.534739 683.667303,153.818399 670.044068,153.818399 L647.278993,153.818399 L650.338824,201.158571 L649.982388,201.153555 L647.278993,251.010087 L670.044068,251.010087 C683.667303,251.010087 689.821269,226.293747 703.384261,219.070707 C714.665557,213.062375 724.536168,212.935303 730.271782,212.935303 C736.008233,212.935303 736.425749,202.414243 736.425749,202.414243 C736.425749,202.414243 736.008233,191.894019 730.271782,191.894019" id="Fill-37" fill="#EA9746" mask="url(#mask-6)"></path>
                                            <path d="M620.75,202.414243 C620.75,185.386595 623.168078,170.066059 627.023615,159.392847 L627.023615,144.028003 L640.108848,144.028003 C650.800267,144.028003 659.467696,170.168887 659.467696,202.414243 C659.467696,234.660435 650.800267,260.801319 640.108848,260.801319 L627.023615,260.801319 L627.023615,245.435639 C623.168078,234.762427 620.75,219.441891 620.75,202.414243" id="Fill-38" fill="#F4800C" mask="url(#mask-6)"></path>
                                            <path d="M608.560627,202.414243 C608.560627,234.660435 617.228057,260.801319 627.920312,260.801319 C638.611732,260.801319 647.278324,234.660435 647.278324,202.414243 C647.278324,170.168887 638.611732,144.028003 627.920312,144.028003 C617.228057,144.028003 608.560627,170.168887 608.560627,202.414243" id="Fill-39" fill="#EA9746" mask="url(#mask-6)"></path>
                                            <path d="M625.409946,180.743534 C625.409946,184.923534 626.533641,188.312678 627.920061,188.312678 C629.305645,188.312678 630.42934,184.923534 630.42934,180.743534 C630.42934,176.563534 629.305645,173.17439 627.920061,173.17439 C626.533641,173.17439 625.409946,176.563534 625.409946,180.743534" id="Fill-40" fill="#F4800C" mask="url(#mask-6)"></path>
                                            <path d="M625.409946,224.085704 C625.409946,228.265704 626.533641,231.654848 627.920061,231.654848 C629.305645,231.654848 630.42934,228.265704 630.42934,224.085704 C630.42934,219.905704 629.305645,216.51656 627.920061,216.51656 C626.533641,216.51656 625.409946,219.905704 625.409946,224.085704" id="Fill-41" fill="#F4800C" mask="url(#mask-6)"></path>
                                        </g>
                                    </g>
                                </g>
                            </g>
                            <path d="M112.043157,199 L112.043157,205.956022 L119,205.956022 L119,212.043157 L112.043157,212.043157 L112.043157,219 L105.956843,219 L105.956843,212.043157 L99,212.043157 L99,205.956022 L105.956843,205.956022 L105.956843,199 L112.043157,199 Z M112.043157,83 L112.043157,89.9565574 L119,89.9565574 L119,96.0434426 L112.043157,96.0434426 L112.043157,103 L105.956843,103 L105.956843,96.0434426 L99,96.0434426 L99,89.9565574 L105.956843,89.9565574 L105.956843,83 L112.043157,83 Z" id="Fill-5" fill="#F4800C"></path>
                        </g>
                        <g id="XMLID_76_" opacity="0.19" transform="translate(58.000000, 0.000000)" fill="#F69223" fill-rule="nonzero">
                            <path d="M436,163.344493 C436,167.473557 435.78617,171.714216 435.358509,175.954876 C430.226582,226.061621 389.705738,263 342.769985,263 C338.386464,263 333.896027,262.665211 329.405591,261.995633 L317.965669,260.321689 C282.256008,254.965066 246.01177,253.62591 209.981363,256.415818 L146.046101,261.214459 C80.293281,266.124697 20.2069642,222.267346 2.13830309,156.090733 C0.748406081,150.957302 0,145.600679 0,140.355653 C0,126.071325 5.13192742,112.233382 14.540461,101.520136 L16.5718489,99.1766133 C20.74154,108.6623 29.9362433,115.246482 40.6277587,115.246482 C55.2751349,115.246482 67.142717,102.859292 67.142717,87.5705968 C67.142717,75.7413877 59.9794017,65.5861232 49.822462,61.6802523 L54.3128985,56.6584182 C72.9161354,35.6783115 103.814615,32.7768074 125.732222,49.9626395 L127.76361,51.6365842 C144.014713,64.3585638 165.076999,66.3672974 182.717999,56.9932072 C183.252575,56.6584182 183.787151,56.4352256 184.321726,56.1004367 C211.798921,41.5929161 241.521334,33.8927705 271.457577,33 C271.029917,35.0087336 270.816086,37.1290636 270.816086,39.2493935 C270.816086,54.5380883 282.683668,66.925279 297.331045,66.925279 C311.978421,66.925279 323.846003,54.5380883 323.846003,39.2493935 C323.846003,38.9146046 323.846003,38.6914119 323.846003,38.356623 C342.342325,42.8204755 360.410986,49.9626395 377.410495,59.783115 C413.761648,80.6516254 436,120.603105 436,163.344493 Z" id="XMLID_80_"></path>
                            <ellipse id="XMLID_79_" cx="159" cy="26" rx="25" ry="26"></ellipse>
                            <ellipse id="XMLID_78_" cx="402.5" cy="40" rx="13.5" ry="14"></ellipse>
                            <circle id="XMLID_77_" cx="450" cy="130" r="5"></circle>
                        </g>
                    </g>
                </g>
            </g>
        </g>
    </g>
</svg>