<?xml version="1.0" encoding="UTF-8"?>
<svg width="131px" height="215px" viewBox="0 0 131 215" version="1.1" xmlns="http://www.w3.org/2000/svg" xmlns:xlink="http://www.w3.org/1999/xlink">
    <!-- Generator: sketchtool 61 (101010) - https://sketch.com -->
    <title>FC4DF275-357C-4C06-9BEA-C33A04F04E20</title>
    <desc>Created with sketchtool.</desc>
    <g id="Page-1" stroke="none" stroke-width="1" fill="none" fill-rule="evenodd" opacity="0.0318777902">
        <g id="Dashboard_900" transform="translate(-1726.000000, -733.000000)" fill="#144D43" fill-rule="nonzero">
            <g id="Group-17" transform="translate(1381.000000, 553.000000)">
                <g id="002-question" transform="translate(345.000000, 180.000000)">
                    <path d="M65.5,164 C51.4393,164 40,175.4393 40,189.5 C40,203.5607 51.4393,215 65.5,215 C79.5607,215 91,203.5607 91,189.5 C91,175.4393 79.5607,164 65.5,164 Z M65.5,202.25 C58.46965,202.25 52.75,196.53035 52.75,189.5 C52.75,182.46965 58.46965,176.75 65.5,176.75 C72.53035,176.75 78.25,182.46965 78.25,189.5 C78.25,196.53035 72.53035,202.25 65.5,202.25 Z" id="Shape"></path>
                    <path d="M65.5,0 C29.3830481,0 0,29.3842873 0,65.5027624 L0,71.801105 L50.3846154,71.801105 L50.3846154,65.5027624 C50.3846154,57.1675359 57.165125,50.3867403 65.5,50.3867403 C73.834875,50.3867403 80.6153846,57.1675359 80.6153846,65.5027624 C80.6153846,69.9443536 78.6659199,74.1482873 75.2662179,77.037547 L40.3076923,106.760265 L40.3076923,152 L90.6923077,152 L90.6923077,130.057414 L107.896974,115.429724 C122.579051,102.953127 131,84.7559558 131,65.5027624 C131,29.3842873 101.616952,0 65.5,0 Z M99.7392853,105.83189 L78.0961538,124.233127 L78.0961538,139.403315 L52.9038462,139.403315 L52.9038462,112.584552 L83.4234872,86.6353812 C89.6438878,81.3493923 93.2115385,73.6469392 93.2115385,65.5027624 C93.2115385,50.2217238 80.7803942,37.7900552 65.5,37.7900552 C52.3853045,37.7900552 41.3695481,46.9478453 38.5102212,59.2044199 L12.9685801,59.2044199 C16.0928462,32.9902983 38.4598365,12.5966851 65.5,12.5966851 C94.6714327,12.5966851 118.403846,36.3300994 118.403846,65.5027624 C118.403846,81.0529503 111.601503,95.7516022 99.7392853,105.83189 Z" id="Shape"></path>
                </g>
            </g>
        </g>
    </g>
</svg>