<?xml version="1.0" encoding="UTF-8"?>
<svg width="196px" height="162px" viewBox="0 0 196 162" version="1.1" xmlns="http://www.w3.org/2000/svg" xmlns:xlink="http://www.w3.org/1999/xlink">
    <!-- Generator: sketchtool 61 (101010) - https://sketch.com -->
    <title>26EA509C-6775-4B08-B309-A57BD0734015</title>
    <desc>Created with sketchtool.</desc>
    <defs>
        <polygon id="path-1" points="47.0723805 26.7504411 210.072381 26.7504411 210.072381 224.750441 47.0723805 224.750441"></polygon>
    </defs>
    <g id="UI-Design-" stroke="none" stroke-width="1" fill="none" fill-rule="evenodd">
        <g id="inactivity-modal" transform="translate(-871.000000, -230.000000)">
            <g id="Group-32" transform="translate(678.000000, 133.000000)">
                <g id="Group-5" transform="translate(111.000000, 0.000000)">
                    <g id="Group-7" opacity="0.0687546503" transform="translate(179.954292, 179.244626) rotate(-38.000000) translate(-179.954292, -179.244626) translate(51.454292, 52.744626)">
                        <g id="Group-3" transform="translate(0.000000, 0.362121)">
                            <mask id="mask-2" fill="white">
                                <use xlink:href="#path-1"></use>
                            </mask>
                            <g id="Clip-2" transform="translate(128.572381, 125.750441) rotate(-51.000000) translate(-128.572381, -125.750441) "></g>
                            <path d="M63.634199,175.421436 C91.1476915,197.283659 129.273224,198.849248 160.137622,200.92592 C191.002478,203.003047 214.708726,185.614848 218.281622,159.330075 C221.854517,133.045302 198.27002,125.328956 185.474239,95.4087543 C172.678458,65.4880972 173.817244,55.6527163 146.742239,37.2505511 C119.667234,18.8479303 77.3133632,30.1477772 55.1070348,61.6741085 C32.9011642,93.1999843 35.0569851,120.757453 35.0569851,120.757453 C35.0569851,120.757453 36.1202488,153.558758 63.634199,175.421436 Z" id="Fill-1" fill="#FF9302" mask="url(#mask-2)"></path>
                        </g>
                    </g>
                    <g id="clock-(2)" transform="translate(121.000000, 114.000000)" fill-rule="nonzero">
                        <g id="Group" transform="translate(8.000000, 40.000000)">
                            <path d="M33.4440178,66.6445442 C33.4422311,66.6445442 33.4401467,66.6445442 33.43836,66.6445442 C33.4362756,66.6445442 33.4341911,66.6445442 33.4321067,66.6445442 L33.4440178,66.6445442 Z" id="Path" fill="#000000"></path>
                            <path d="M56.9922844,9.98507522 C43.9671867,-2.98238938 22.8493822,-2.98238938 9.82428444,9.98507522 C-3.18771111,22.9643982 -3.16746222,43.9875752 9.86954667,56.9419956 C16.1243689,63.1572832 24.6012089,66.6469159 33.43836,66.6445635 C42.2719378,66.654031 50.7466933,63.1641018 56.9922844,56.9443673 C70.0173822,43.9769027 70.0173822,22.9525398 56.9922844,9.98507522 Z M54.6338844,52.3195885 C53.9760933,51.664708 52.9094533,51.664708 52.2516622,52.3195885 C51.5938711,52.974469 51.5938711,54.0363894 52.2516622,54.6912699 L53.4427733,55.8771106 C48.3588133,60.4242168 41.8645778,63.1024381 35.0401067,63.4664912 L35.0401067,61.830031 C35.0401067,60.9228628 34.3016178,60.1876416 33.3904178,60.1876416 C32.4792178,60.1876416 31.7407289,60.9228628 31.7407289,61.830031 L31.7407289,63.4664912 C24.9162578,63.1015487 18.4226178,60.4236239 13.3380622,55.8771106 L14.5291733,54.6912699 C15.1869644,54.0363894 15.1869644,52.974469 14.5291733,52.3195885 C13.8713822,51.664708 12.8047422,51.664708 12.1469511,52.3195885 L10.95584,53.5054292 C6.38912,48.4433717 3.69929333,41.9784646 3.33272889,35.1841903 L4.97646222,35.1841903 C5.88766222,35.1841903 6.62615111,34.448969 6.62615111,33.5418009 C6.62615111,32.6346327 5.88766222,31.8994115 4.97646222,31.8994115 L5.05984,31.8045442 L3.41610667,31.8045442 C3.78177778,25.0102699 6.47190222,18.5447699 11.0392178,13.4833053 L12.2303289,14.669146 C12.88812,15.3240265 13.95476,15.3240265 14.6125511,14.669146 C15.2703422,14.0142655 15.2703422,12.9523451 14.6125511,12.2974646 L13.42144,11.1116239 C18.5056978,6.58675221 24.9898089,3.92572566 31.8002844,3.56967699 L31.8002844,5.20613717 C31.8002844,6.11330531 32.5387733,6.84852655 33.4499733,6.84852655 C34.3611733,6.84852655 35.0996622,6.11330531 35.0996622,5.20613717 L35.0996622,3.56967699 C41.92592,3.94944248 48.4159867,6.64456195 53.4904178,11.2064912 L52.2993067,12.3923319 C51.6415156,13.0472124 51.6415156,14.1091327 52.2993067,14.7640133 C52.9570978,15.4188938 54.0237378,15.4188938 54.6815289,14.7640133 L55.87264,13.5781726 C60.4399556,18.6396372 63.13008,25.1048407 63.4957511,31.8994115 L61.8043733,31.8994115 C60.8931733,31.8994115 60.1546844,32.6346327 60.1546844,33.5418009 C60.1546844,34.448969 60.8931733,35.1841903 61.8043733,35.1841903 L63.4481067,35.1841903 C63.0824356,41.9787611 60.3923111,48.4439646 55.8249956,53.5054292 L54.6338844,52.3195885 Z" id="Shape" fill="#F69223"></path>
                        </g>
                        <path d="M40.9827381,33.0000037 C18.3389922,33.0095312 -0.00951639903,51.3734897 3.70294428e-06,74.0172031 C0.00447169368,84.8835546 4.32262568,95.3034783 12.0053624,102.98799 C19.6907777,110.695418 30.1330377,115.018923 41.0172619,114.999938 C63.6610078,114.990351 82.0095164,96.6263928 82.0000037,73.9826794 C81.9904688,51.3392635 63.626484,32.9904836 40.9827381,33.0000037 Z M67.6482095,100.721624 C52.9086288,115.429339 29.0369069,115.403743 14.3291715,100.664184 C7.26786324,93.5877072 3.30625681,83.9966513 3.31517032,73.9999412 C3.31101872,63.9954931 7.2955418,54.4023538 14.386612,47.3452224 C29.1261926,32.637508 52.9979145,32.6631032 67.7056499,47.4026627 C82.4133854,62.1419247 82.3877901,86.0139099 67.6482095,100.721624 Z" id="Shape" fill="#F69223"></path>
                        <path d="M50.3552756,72.661693 L43.2894923,72.661693 L43.2894923,56.6691535 C43.2894923,55.7472023 42.5532258,55 41.6447679,55 C40.7363101,55 40,55.7472023 40,56.6691535 L40,74.3248207 C39.9935122,75.2434577 40.7217629,75.9933716 41.626955,76 C41.6349709,76 41.6429867,76 41.6507056,76 L50.3552756,76 C51.2637335,76 52,75.2527977 52,74.3308465 C52,73.4091966 51.2637335,72.661693 50.3552756,72.661693 Z" id="Path" fill="#F69223"></path>
                        <path d="M101.219219,12.7884734 L93.3893932,12.7884734 L102.497558,2.73651127 C103.163155,2.11449539 103.168071,1.10147325 102.50862,0.473950234 C102.181353,0.162362595 101.733013,-0.00864829566 101.268386,0.000337022318 L90.3287548,0.000337022318 C89.3918184,0.000337022318 88.6324974,0.71655382 88.6324974,1.60030332 C88.6324974,1.60407136 88.6324974,1.60812924 88.6324974,1.61189728 L88.6324974,1.61189728 C88.6324974,2.49564678 89.3918184,3.21186358 90.3287548,3.21186358 L97.5931615,3.21186358 L88.4112465,13.3565774 C87.7997334,14.0261285 87.8793223,15.0362522 88.5891691,15.6130516 C88.8826339,15.8513075 89.2535366,15.9881162 89.6404185,16 L101.219219,16 C102.159536,16 102.921622,15.2811746 102.921622,14.3942367 C102.921622,13.5075887 102.159536,12.7884734 101.219219,12.7884734 Z" id="Path" fill="#F69223"></path>
                        <path d="M80,16.6 L80,16.6 C80,15.7162319 79.2413774,15 78.3053029,15 L67.3266128,15 C66.3871611,15 65.6257754,15.7188406 65.6257754,16.6057971 C65.6257754,17.4927536 66.3871611,18.2115942 67.3266128,18.2115942 L74.5843374,18.2115942 L65.4108682,28.3565217 C64.7999176,29.026087 64.8794333,30.0362319 65.5886272,30.6130435 C65.8818221,30.8513043 66.2523836,30.9881159 66.6389096,31 L78.2070596,31 C79.1465112,31 79.9078969,30.2811594 79.9078969,29.3942029 C79.9078969,28.5072464 79.1465112,27.7884058 78.2070596,27.7884058 L70.3844358,27.7884058 L79.4842226,17.7362319 C79.8105746,17.437971 79.9963159,17.0286957 80,16.6 Z" id="Path" fill="#F69223"></path>
                    </g>
                </g>
            </g>
        </g>
    </g>
</svg>