<?xml version="1.0" encoding="UTF-8"?>
<svg width="27px" height="27px" viewBox="0 0 27 27" version="1.1" xmlns="http://www.w3.org/2000/svg" xmlns:xlink="http://www.w3.org/1999/xlink">
    <!-- Generator: sketchtool 61 (101010) - https://sketch.com -->
    <title>01B7D517-BE69-470B-8DBB-CD8A468504A9</title>
    <desc>Created with sketchtool.</desc>
    <g id="Page-1" stroke="none" stroke-width="1" fill="none" fill-rule="evenodd">
        <g id="HCP-User-list-page_Applications" transform="translate(-1443.000000, -265.000000)" fill-rule="nonzero">
            <g id="Group-11-Copy" transform="translate(1413.000000, 31.000000)">
                <g id="Group-8-Copy-7">
                    <g id="Group-8-Copy" transform="translate(0.000000, 40.000000)">
                        <g id="Group-26" transform="translate(29.000000, 12.000000)">
                            <g id="Group-25">
                                <g id="Group-14" transform="translate(1.015095, 182.000000)">
                                    <g id="uk" transform="translate(0.000000, 0.000000)">
                                        <g id="Group" transform="translate(0.389762, 0.548523)" fill="#29337A">
                                            <path d="M1.93277511,5.13642616 C1.08236965,6.35239241 0.43608823,7.71772152 0.0442101704,9.18518565 L6.04287326,9.18518565 L1.93277511,5.13642616 Z" id="Path"></path>
                                            <path d="M9.10434404,0.0263291139 C7.5849396,0.462240506 6.17778667,1.15782278 4.93867693,2.06508017 L9.10434404,6.16880169 L9.10434404,0.0263291139 Z" id="Path"></path>
                                            <path d="M5.2484822,23.146692 C6.41075311,23.9479198 7.70927374,24.5681899 9.10434404,24.9683924 L9.10434404,19.3487722 L5.2484822,23.146692 Z" id="Path"></path>
                                            <path d="M0.195549267,16.3334304 C0.631581817,17.7248143 1.2997456,19.015654 2.15365892,20.1639325 L6.04198238,16.3334304 L0.195549267,16.3334304 L0.195549267,16.3334304 Z" id="Path"></path>
                                        </g>
                                        <g id="Group" transform="translate(0.167041, 0.274262)" fill="#FFFFFF">
                                            <path d="M2.37303936,5.10916456 C2.29931862,5.20844726 2.22665581,5.30915612 2.15544069,5.41090717 L6.26553884,9.45966667 L0.266875751,9.45966667 C0.169657921,9.82416034 0.0903134715,10.1956751 0.0249447813,10.5722911 L7.91907717,10.5722911 L2.37303936,5.10916456 Z" id="Path"></path>
                                            <path d="M5.16529581,23.2065907 C5.26563174,23.2802574 5.36875169,23.3503586 5.47114779,23.4209536 L9.32700962,19.6228692 L9.32700962,25.2424895 C9.69745076,25.3491772 10.0736827,25.4412743 10.4564291,25.5153249 L10.4564291,17.9943038 L5.16529581,23.2065907 Z" id="Path"></path>
                                            <path d="M0.12528071,15.4950675 C0.207130773,15.8720675 0.30373612,16.2433629 0.418047808,16.607692 L6.2645366,16.607692 L2.37621314,20.4381941 C2.79910513,21.0073966 3.26804475,21.5415485 3.77757531,22.0354937 L10.4166734,15.4950675 L0.12528071,15.4950675 L0.12528071,15.4950675 Z" id="Path"></path>
                                            <path d="M9.3270653,0.300590717 L9.3270653,6.44306329 L5.16134251,2.33956118 C4.58705574,2.76027848 4.05024182,3.22734599 3.55284956,3.73297468 L10.4562621,10.53373 L10.4562621,0.0277552743 C10.0737383,0.102244726 9.69750644,0.194561181 9.3270653,0.300590717 Z" id="Path"></path>
                                        </g>
                                        <g id="Group" transform="translate(9.409973, 9.654008)" fill="#D32030">
                                            <polygon id="Path" points="0.123339822 7.19515928 0.0511665692 7.26665928 0.123339822 7.26665928"></polygon>
                                            <polygon id="Path" points="1.180609 6.15401224 1.25268074 6.15401224 1.25268074 6.08261224"></polygon>
                                            <polygon id="Path" points="6.28753428 1.19936793 6.21810179 1.19936793 6.21810179 1.26816793"></polygon>
                                            <polygon id="Path" points="0.161985388 0.11836308 0.0910302485 0.0480630802 0.0910302485 0.11836308"></polygon>
                                            <polygon id="Path" points="1.22037117 1.16070042 1.22037117 1.23070042 1.29142782 1.23070042"></polygon>
                                        </g>
                                        <g id="Group" transform="translate(16.704095, 0.493671)" fill="#252F6C">
                                            <path d="M0.0459362602,22.1473924 L0.0459362602,25.059557 C1.45915834,24.6698312 2.77677733,24.0554852 3.95530688,23.2550802 L0.75224106,20.0996456 C0.496278651,20.9855654 0.40262436,21.4435823 0.0459362602,22.1473924 Z" id="Path"></path>
                                            <path d="M0.769056515,5.51106751 L4.26572464,2.06639662 C3.00952104,1.16012658 1.58443905,0.469481013 0.0458805798,0.0448691983 L0.0458805798,3.03640506 C0.457135389,3.84767089 0.491712865,4.46410127 0.769056515,5.51106751 Z" id="Path"></path>
                                            <path d="M7.07301478,20.294481 C7.95359896,19.1274979 8.63991453,17.8102194 9.08569114,16.3882827 L3.10785248,16.3882827 L7.07301478,20.294481 Z" id="Path"></path>
                                            <path d="M9.23664047,9.24025738 C8.83641036,7.74180169 8.17075219,6.35085654 7.29350883,5.11580169 L3.10634911,9.24025738 L9.23664047,9.24025738 Z" id="Path"></path>
                                        </g>
                                        <path d="M17.9127472,8.6260211 L22.6285358,3.98035865 C22.2039734,3.55081013 21.7487869,3.15104641 21.2673748,2.78282278 L17.5618499,6.4338481 C17.7265522,7.11198734 17.8013309,7.88820253 17.9127472,8.6260211 Z" id="Path" fill="#D71F28"></path>
                                        <g id="Group" transform="translate(12.528071, 0.000000)" fill="#D32030">
                                            <path d="M0.00105792599,0.100034599 C0.22077245,0.0809345992 0.439818811,0.0708345992 0.659032212,0.0708345992 C0.438538164,0.0708345992 0.219102041,0.0809345992 0.00105792599,0.100034599 Z" id="Path"></path>
                                            <path d="M0.659032212,26.066623 C0.439763131,26.066623 0.22071677,26.055823 0.0014476882,26.036723 C0.219491803,26.056523 0.438538164,26.066623 0.659032212,26.066623 Z" id="Path"></path>
                                            <path d="M0.659032212,26.0372996 C1.49106316,26.0372996 2.30355033,25.9579283 3.09270744,25.8124599 L3.09270744,24.3160886 C2.39998863,25.0557722 1.58961732,26.0372996 0.659032212,26.0372996 Z" id="Path"></path>
                                        </g>
                                        <g id="Group" transform="translate(17.762021, 10.805907)" fill="#D71F28">
                                            <path d="M8.42064545,0.0404261603 L0.49616729,0.0404261603 C0.601124684,1.66975949 0.588429573,3.34522363 0.458248995,4.96342194 L8.32030952,4.96342194 C8.51062484,4.08485232 8.61263118,3.17452321 8.61263118,2.24038819 C8.61263118,1.49000844 8.54475687,0.756084388 8.42064545,0.0404261603 Z" id="Path"></path>
                                            <path d="M0.480966564,5.1835443 C0.407691269,5.95114768 0.152397023,6.54925738 0.0253902238,7.27336287 L4.48944815,11.671038 C4.93110441,11.2587131 5.34397395,10.8177004 5.72460458,10.3494262 L1.38710802,6.07604641 L0.480966564,5.1835443 Z" id="Path"></path>
                                        </g>
                                        <path d="M15.6208341,1.71819409 L15.6208341,0.279253165 C14.8318997,0.134223629 14.0194125,0.0548523207 13.1871032,0.0548523207 C14.1176883,0.0548523207 14.9280596,0.978729958 15.6208341,1.71819409 Z" id="Path" fill="#D32030"></path>
                                        <g id="Group" transform="translate(16.704095, 2.852321)" fill="#29337A">
                                            <path d="M0.0459362602,20.3505949 C0.40262436,19.6466203 0.708476332,18.8361772 0.964605783,17.9504219 L0.0459362602,17.0454135 L0.0459362602,20.3505949 Z" id="Path"></path>
                                            <path d="M1.07891747,2.84716456 C0.801128377,1.80019831 0.457191069,0.848400844 0.0459362602,0.0371350211 L0.0459362602,3.86434599 L1.07891747,2.84716456 Z" id="Path"></path>
                                        </g>
                                        <g id="Group" transform="translate(15.590488, 8.227848)" fill="#FFFFFF">
                                            <path d="M2.90840559,8.01348523 C2.9233836,7.85677215 2.93691391,7.6994557 2.94983175,7.54148101 L2.42927648,7.54148101 L2.90840559,8.01348523 Z" id="Path"></path>
                                            <path d="M0.0684311076,2.61848523 L2.98769436,2.61848523 C2.930455,1.73031646 2.83925064,0.856464135 2.71241088,0.0139873418 L0.0684311076,2.61848523 Z" id="Path"></path>
                                            <path d="M0.0303457719,16.6439494 C0.450565112,16.1951477 0.827019724,15.6314304 1.15976529,14.9748481 L1.15976529,11.6696667 L2.07843481,12.5746751 C2.28912912,11.8471139 2.46591413,11.0698565 2.60878981,10.2565612 L0.0304014522,7.71667932 L0.0303457719,16.6439494 L0.0303457719,16.6439494 Z" id="Path"></path>
                                        </g>
                                        <path d="M15.6208341,24.8717975 L15.6208341,15.9445274 L18.1990554,18.4845738 C18.3258395,17.7602489 18.4256186,17.0091013 18.4986712,16.2413333 L18.0195421,15.7693291 L18.5400973,15.7693291 C18.6702222,14.1510759 18.6829173,12.4756118 18.5780156,10.8463333 L15.6587524,10.8463333 L18.3025651,8.24183544 C18.1911488,7.50379747 18.05334,6.78994937 17.8886376,6.11159072 L15.6208897,8.346 L15.6208897,1.22035443 C14.9280596,0.480670886 14.1176883,0.0548523207 13.1871032,0.0548523207 C12.9678341,0.0548523207 12.7487877,0.0603924051 12.5291289,0.0708691983 C11.8805089,0.102848101 11.244417,0.181451477 10.6234701,0.30207173 L10.6234701,10.8079916 L3.71989051,4.00723629 C3.29571786,4.43843038 2.90116715,4.89787342 2.54008031,5.38342616 L6.95625316,9.73392827 L8.08606243,10.8465527 L0.191985727,10.8465527 C0.0683197469,11.5619916 0,12.2959156 0,13.0462954 C0,13.9806498 0.10245178,14.8907595 0.292321656,15.7693291 L10.5839371,15.7693291 L3.9447833,22.3097553 C4.3795352,22.7304726 4.84240566,23.1222827 5.33239244,23.4807975 L10.623303,18.2685654 L10.623303,25.7896962 C11.2441942,25.9103165 11.8807316,25.988865 12.5293516,26.0208987 C12.7486207,26.0313755 12.967667,26.0372996 13.1869361,26.0372996 C14.1176883,26.0372996 14.9280596,25.611481 15.6208341,24.8717975 Z" id="Path" fill="#E51D35"></path>
                                    </g>
                                </g>
                            </g>
                        </g>
                    </g>
                </g>
            </g>
        </g>
    </g>
</svg>