<?xml version="1.0" encoding="UTF-8"?>
<svg width="27px" height="26px" viewBox="0 0 27 26" version="1.1" xmlns="http://www.w3.org/2000/svg" xmlns:xlink="http://www.w3.org/1999/xlink">
    <!-- Generator: sketchtool 61 (101010) - https://sketch.com -->
    <title>B4865283-EFDF-4F76-9FF4-0C1B7C64B161</title>
    <desc>Created with sketchtool.</desc>
    <g id="Page-1" stroke="none" stroke-width="1" fill="none" fill-rule="evenodd">
        <g id="HCP-User-list-page_Applications" transform="translate(-1442.000000, -83.000000)" fill-rule="nonzero">
            <g id="Group-11-Copy" transform="translate(1413.000000, 31.000000)">
                <g id="Group-8-Copy-7">
                    <g id="Group-8-Copy" transform="translate(0.000000, 40.000000)">
                        <g id="Group-26" transform="translate(29.000000, 12.000000)">
                            <g id="Group-25">
                                <g id="Group-24">
                                    <g id="belgium">
                                        <path d="M17.7862048,0.808589844 C16.3566299,0.286050781 14.8104023,0 13.1962347,0 C11.5820672,0 10.0358396,0.286050781 8.6062647,0.808589844 L7.4587593,13 L8.6062647,25.1914102 C10.0358396,25.714 11.5820672,26 13.1962347,26 C14.8104023,26 16.3566299,25.714 17.7862048,25.1914102 L18.9337102,13 L17.7862048,0.808589844 Z" id="Path" fill="#FFDA44"></path>
                                        <path d="M26.3924695,13 C26.3924695,7.41050781 22.8113413,2.64539844 17.7862048,0.808640625 L17.7862048,25.1915117 C22.8113413,23.3546016 26.3924695,18.5895938 26.3924695,13 Z" id="Path" fill="#D80027"></path>
                                        <path d="M0,13 C0,18.5895938 3.5811282,23.3546016 8.6062647,25.1914609 L8.6062647,0.808640625 C3.5811282,2.64539844 0,7.41050781 0,13 Z" id="Path" fill="#000000"></path>
                                    </g>
                                </g>
                            </g>
                        </g>
                    </g>
                </g>
            </g>
        </g>
    </g>
</svg>