<?xml version="1.0" encoding="UTF-8"?>
<svg width="26px" height="26px" viewBox="0 0 26 26" version="1.1" xmlns="http://www.w3.org/2000/svg" xmlns:xlink="http://www.w3.org/1999/xlink">
    <!-- Generator: sketchtool 61 (101010) - https://sketch.com -->
    <title>AA5A1D10-D648-4701-A2EE-E8AC9BBE3D67</title>
    <desc>Created with sketchtool.</desc>
    <g id="Page-1" stroke="none" stroke-width="1" fill="none" fill-rule="evenodd">
        <g id="countries-and-flags" transform="translate(-679.000000, -904.000000)" fill-rule="nonzero">
            <g id="Anrorra" transform="translate(679.000000, 904.000000)">
                <g id="Group-5">
                    <g id="andorra">
                        <circle id="Oval" fill="#FFE565" cx="13" cy="13" r="13"></circle>
                        <circle id="Oval-Copy-2" fill="#FFE565" cx="13" cy="13" r="13"></circle>
                        <path d="M26,13 C26,7.41050781 23.0690524,2.86996869 18.1186423,1.03321088 L18.1186423,24.9410612 C23.0690524,23.1041511 26,18.5895937 26,13 Z" id="Path" fill="#FF5560"></path>
                        <path d="M0,13 C0,18.5895937 2.65127581,23.041439 7.60168597,24.8782984 L7.60168597,1.15435276 C2.65127581,2.99111057 0,7.41050781 0,13 Z" id="Path" fill="#4A51A5"></path>
                    </g>
                    <g id="andorra" transform="translate(9.000000, 9.000000)">
                        <path d="M7.1145022,5.21468899 C7.1145022,5.08173392 7.00669956,4.97397709 6.87379031,4.97397709 C6.84492687,4.97397709 6.81762115,4.97988722 6.79196476,4.98918767 C6.6728,4.88321762 6.45691982,4.62028546 6.67357885,4.24909251 C6.70285463,4.27186256 6.7391859,4.28597357 6.77913656,4.28597357 C6.87461498,4.28597357 6.95204229,4.20854626 6.95204229,4.11306784 C6.95204229,4.03761057 6.9034326,3.97411101 6.83603877,3.9505163 C7.01402996,3.85971101 7.26793656,3.66692159 7.25483348,3.30654097 C7.2362326,2.79538326 6.8174837,2.513163 6.56059912,2.6260511 C6.56151542,2.61890396 6.56275242,2.61184846 6.56275242,2.60447225 C6.56275242,2.51027665 6.48642467,2.43399471 6.39227489,2.43399471 C6.33441057,2.43399471 6.2834185,2.46304141 6.25263084,2.50711542 C6.24213921,2.4559859 6.24342203,2.36110308 6.36222026,2.25852335 C6.5828652,2.06793304 6.83365639,1.61157004 6.37729339,1.29059031 C6.12457797,1.11287401 5.64141322,1.02774978 5.47964053,1.27056916 C5.40945198,1.37585198 5.46571278,1.52713304 5.54588899,1.56112775 C5.41673656,1.6331489 5.17171806,1.74122643 4.97814978,1.65674361 C4.7022978,1.53638767 4.86164229,1.29737093 4.92294273,1.19034714 C5.03074537,1.00227665 4.96307665,0.69385022 4.601963,0.69385022 C4.36120529,0.69385022 4.24084934,0.934562115 4.00018326,0.934562115 C3.75942555,0.934562115 3.6390696,0.69385022 3.39840352,0.69385022 C3.03728987,0.69385022 2.96962115,1.00227665 3.07742379,1.19034714 C3.13881586,1.29737093 3.29806872,1.53638767 3.02221674,1.65674361 C2.82864846,1.74122643 2.58367577,1.6331489 2.45447753,1.56112775 C2.53456211,1.52717885 2.59091454,1.3758978 2.52072599,1.27056916 C2.35886167,1.02779559 1.87578855,1.11287401 1.62307313,1.29059031 C1.16671013,1.61157004 1.41745551,2.06793304 1.63814626,2.25852335 C1.75694449,2.36110308 1.75822731,2.4559859 1.74773568,2.50711542 C1.71694802,2.46304141 1.66595595,2.43399471 1.60809163,2.43399471 C1.51389604,2.43399471 1.4376141,2.51032247 1.4376141,2.60447225 C1.4376141,2.61184846 1.4388511,2.61890396 1.4397674,2.6260511 C1.18288282,2.51320881 0.764133921,2.79538326 0.74553304,3.30654097 C0.732429956,3.6669674 0.986336564,3.85971101 1.16432775,3.9505163 C1.09693392,3.97415683 1.04832423,4.03761057 1.04832423,4.11306784 C1.04832423,4.20854626 1.12575154,4.28597357 1.22122996,4.28597357 C1.26118062,4.28597357 1.29751189,4.27190837 1.32678767,4.24909251 C1.5434467,4.62033128 1.32761233,4.88321762 1.20840176,4.98918767 C1.18274537,4.97984141 1.15543965,4.97397709 1.12657621,4.97397709 C0.993621145,4.97397709 0.885818502,5.08173392 0.885818502,5.21468899 C0.885818502,5.33948899 0.981159471,5.44096916 1.10279824,5.4530185 C0.936856388,5.62345022 0.788003524,5.99908722 1.11150308,6.42580793 C1.46505727,6.89220441 2.30759471,6.85459031 2.71379031,6.86961762 C2.97136211,6.87919295 3.16511366,7.01251454 3.27264141,7.10900088 C3.20387313,7.15137974 3.1576,7.22669956 3.1576,7.31347313 C3.1576,7.43502026 3.24803877,7.5345304 3.36514185,7.55084053 C3.40765815,7.61892159 3.48270308,7.6645533 3.56883524,7.6645533 C3.66513833,7.6645533 3.74755947,7.6076511 3.78608987,7.52587137 C3.91318062,7.63065022 4.00009163,7.67454097 4.00009163,7.67454097 C4.00009163,7.67454097 4.08700264,7.63065022 4.21409339,7.52587137 C4.25257797,7.60755947 4.33509075,7.6645533 4.43134802,7.6645533 C4.51752599,7.6645533 4.59252511,7.61892159 4.63504141,7.55084053 C4.75214449,7.5345304 4.84258326,7.43502026 4.84258326,7.31347313 C4.84258326,7.22674537 4.79631013,7.15137974 4.72754185,7.10900088 C4.8350696,7.01251454 5.02882115,6.87914714 5.28639295,6.86961762 C5.69258855,6.85454449 6.53512599,6.89215859 6.88868018,6.42580793 C7.21217974,5.99908722 7.06328106,5.62340441 6.89738502,5.4530185 C7.01911542,5.44087753 7.1145022,5.33948899 7.1145022,5.21468899 Z" id="Path" fill="#DCBE82"></path>
                        <path d="M1.83363877,2.12291101 L1.83363877,5.61341674 C1.83363877,6.01223612 2.15695507,6.33559824 2.55577445,6.33559824 L3.51866784,6.33559824 C3.8797815,6.33559824 4.00009163,6.57631013 4.00009163,6.57631013 C4.00009163,6.57631013 4.12044758,6.33559824 4.48151542,6.33559824 L5.44440881,6.33559824 C5.84322819,6.33559824 6.16659031,6.01228194 6.16659031,5.61341674 L6.16659031,2.12291101 C6.16659031,2.05643348 6.11271189,2.00255507 6.04623436,2.00255507 L1.9539489,2.00255507 C1.88751718,2.00255507 1.83363877,2.05643348 1.83363877,2.12291101 Z" id="Path" fill="#D2AA73"></path>
                        <g id="Group" transform="translate(2.029956, 2.216740)" fill="#FF4B55">
                            <rect id="Rectangle" x="0.0444863436" y="0.0266185022" width="1.80556828" height="1.80556828"></rect>
                            <path d="M1.84977974,3.87810044 L1.84977974,3.87810044 C0.852662555,3.87810044 0.0443488987,3.06978678 0.0443488987,2.0726696 L0.0443488987,2.0726696 L1.84977974,2.0726696 L1.84977974,3.87810044 Z" id="Path"></path>
                        </g>
                        <g id="Group" transform="translate(4.091630, 2.216740)" fill="#FFE15A">
                            <path d="M0.0288634361,3.87810044 L0.0288634361,3.87810044 L0.0288634361,2.0726696 L1.83429427,2.0726696 L1.83429427,2.0726696 C1.83429427,3.06978678 1.0259348,3.87810044 0.0288634361,3.87810044 Z" id="Path"></path>
                            <rect id="Rectangle" x="0.0289092511" y="0.0266185022" width="1" height="1.80556828"></rect>
                        </g>
                        <rect id="Rectangle" fill="#FF4B55" x="4.37801938" y="2.24335859" width="1" height="1.80556828"></rect>
                        <rect id="Rectangle" fill="#FFE15A" x="4.63641586" y="2.24335859" width="1" height="1.80556828"></rect>
                        <rect id="Rectangle" fill="#FF4B55" x="4.89389604" y="2.24335859" width="1" height="1.80556828"></rect>
                        <g id="Group" transform="translate(5.145374, 2.216740)" fill="#FFE15A">
                            <rect id="Rectangle" x="0.00838888889" y="0.0266185022" width="1" height="1.80556828"></rect>
                            <rect id="Rectangle" x="0.633944444" y="0.0266185022" width="1" height="1.80556828"></rect>
                        </g>
                        <g id="Group" transform="translate(2.671366, 2.216740)" fill="#FF4B55">
                            <rect id="Rectangle" x="2.73840705" y="0.0266185022" width="1" height="1.80556828"></rect>
                            <rect id="Rectangle" x="0.00462731278" y="2.07271542" width="1" height="1.80556828"></rect>
                        </g>
                        <g id="Group" transform="translate(2.854626, 4.278414)" fill="#FFE15A">
                            <rect id="Rectangle" x="0.0350714286" y="0.0110414097" width="1" height="1.80556828"></rect>
                            <rect id="Rectangle" x="0.660071429" y="0.0110414097" width="1" height="1.80556828"></rect>
                        </g>
                        <rect id="Rectangle" fill="#FF4B55" x="3.07733216" y="4.28945551" width="1" height="1.80556828"></rect>
                        <rect id="Rectangle" fill="#FFE15A" x="3.67934097" y="4.28945551" width="1" height="1.80556828"></rect>
                        <rect id="Rectangle" fill="#FF4B55" x="3.47867137" y="4.28945551" width="1" height="1.80556828"></rect>
                        <path d="M2.27492863,6.0029815 L2.27492863,4.28940969 L2.07430485,4.28940969 L2.07430485,5.61337093 C2.07435066,5.77408987 2.15393128,5.9155207 2.27492863,6.0029815 Z" id="Path" fill="#FFE15A"></path>
                        <path d="M2.47555242,6.08677709 L2.47555242,4.28940969 L2.27492863,4.28940969 L2.27492863,6.0029815 C2.33348018,6.04517709 2.40142379,6.07422379 2.47555242,6.08677709 Z" id="Path" fill="#FF4B55"></path>
                        <path d="M2.47555242,4.28940969 L2.47555242,6.08677709 C2.50175859,6.09117533 2.52828546,6.09484053 2.55577445,6.09484053 L2.6761304,6.09484053 L2.6761304,4.28940969 L2.47555242,4.28940969 L2.47555242,4.28940969 Z" id="Path" fill="#FFE15A"></path>
                        <g id="Group" transform="translate(2.167401, 3.591189)" fill="#F5F5F5">
                            <path d="M0.17606696,0.9685 C0.167087225,0.9685 0.158015859,0.961625 0.149952423,0.947125 C0.0316123348,0.733375 0.0246942731,0.510875 0.031154185,0.39725 C0.0398132159,0.243875 0.0816422907,0.1165 0.137719824,0.07275 C0.191094273,0.031875 0.244285463,0.07475 0.280204405,0.188625 C0.354882819,0.425625 0.432081057,0.518875 0.497000881,0.453375 C0.548405286,0.401375 0.579101322,0.263125 0.579101322,0.15975 C0.579101322,0.08825 0.600267841,0.030375 0.626519824,0.030375 C0.652771806,0.030375 0.673938326,0.088125 0.673938326,0.15975 C0.673938326,0.385875 0.61341674,0.6115 0.529987665,0.695875 C0.46900793,0.75725 0.346452863,0.79525 0.20827489,0.357375 C0.193430837,0.310625 0.17597533,0.312125 0.163696916,0.3215 C0.146882819,0.334625 0.128236123,0.37525 0.1248,0.4365 C0.119760352,0.52575 0.147982379,0.633 0.202227313,0.731125 C0.224081057,0.7705 0.230037004,0.850875 0.215605286,0.9105 C0.206533921,0.948125 0.191414978,0.9685 0.17606696,0.9685 Z" id="Path"></path>
                            <path d="M1.44899031,0.9685 C1.43364229,0.9685 1.41852335,0.948 1.40940617,0.91075 C1.39497445,0.851125 1.4009304,0.77075 1.42278414,0.731375 C1.47698326,0.63325 1.5052511,0.526 1.50021145,0.43675 C1.49672952,0.375625 1.47817445,0.334875 1.46131454,0.32175 C1.44894449,0.312375 1.43148899,0.310875 1.41673656,0.357625 C1.27865022,0.79575 1.15595771,0.757875 1.09502379,0.696125 C1.01168634,0.61175 0.951073128,0.386 0.951073128,0.16 C0.951073128,0.0885 0.972239648,0.030625 0.99849163,0.030625 C1.0246978,0.030625 1.04591013,0.088375 1.04591013,0.16 C1.04591013,0.26325 1.07660617,0.4015 1.12801057,0.453625 C1.19297621,0.51925 1.27017445,0.425875 1.34480705,0.188875 C1.38077181,0.074375 1.43400881,0.03175 1.48729163,0.073 C1.54332335,0.11675 1.58519824,0.244 1.59385727,0.3975 C1.60027137,0.510875 1.59339912,0.7335 1.47505903,0.947375 C1.46699559,0.961375 1.45792423,0.9685 1.44899031,0.9685 Z" id="Path"></path>
                        </g>
                        <g id="Group" transform="translate(2.259031, 2.308370)" fill="#FFE15A">
                            <path d="M0.058276652,1.69410044 C0.0482431718,1.69410044 0.0381638767,1.69093921 0.0295964758,1.6844793 C0.00875066079,1.6685815 0.00476475771,1.63884758 0.0205709251,1.61800176 L1.05122467,0.262840529 C1.06107489,0.245018502 1.0647859,0.220415859 1.06909251,0.192010573 C1.07706432,0.138773568 1.08700617,0.0725251101 1.16823612,0.0236405286 C1.22119824,-0.00815506608 1.28405639,-0.00723876652 1.33656035,0.0263436123 C1.39456211,0.0634079295 1.42874009,0.132359471 1.42168458,0.19805815 C1.4174696,0.237962996 1.39414978,0.310808811 1.28616388,0.350759471 C1.2614696,0.359922467 1.23430132,0.347231718 1.22522996,0.322812335 C1.21611278,0.298255507 1.22866608,0.27094978 1.25322291,0.261878414 C1.2846978,0.250195595 1.32318238,0.2278837 1.32744317,0.187978855 C1.33069604,0.157695154 1.3134696,0.124204405 1.28552247,0.106290749 C1.26989956,0.0962572687 1.24538855,0.0877356828 1.2171207,0.104962115 C1.17410044,0.130801762 1.16983965,0.159115419 1.16278414,0.206075771 C1.15779031,0.239337445 1.15215507,0.276997357 1.1299348,0.315390308 L0.0959823789,1.67549956 C0.0867735683,1.68759471 0.0726167401,1.69410044 0.058276652,1.69410044 Z" id="Path"></path>
                            <polygon id="Path" points="0.724518062 0.203510132 0.25042467 0.772486344 0.440052863 1.34146256 1.00902907 1.34146256 1.19870308 0.772486344"></polygon>
                        </g>
                        <path d="M2.9835489,2.43779736 L2.45608106,3.07073128 L2.66490573,3.69720529 L3.30219207,3.69720529 L3.51106256,3.07073128 L2.9835489,2.43779736 Z M2.56282996,3.09093568 L2.93622203,2.6428652 L2.93622203,3.60236828 L2.73330749,3.60236828 L2.56282996,3.09093568 Z M3.23388194,3.60236828 L3.0309674,3.60236828 L3.0309674,2.6428652 L3.40435947,3.09093568 L3.23388194,3.60236828 Z" id="Shape" fill="#F5F5F5"></path>
                        <path d="M5.48206872,4.85943965 L5.48921586,4.75424846 C5.48921586,4.75424846 5.58249515,4.68731278 5.53700088,4.62514185 C5.49155242,4.56297093 5.43900264,4.55101322 5.32900088,4.5653533 C5.21899912,4.57964758 5.04687225,4.57731101 4.97278943,4.58207577 C4.89870661,4.58684053 4.86040529,4.62752423 4.74325639,4.59403348 L4.77436476,4.52228722 C4.77436476,4.52228722 4.71938678,4.52705198 4.68589604,4.54382026 C4.66761586,4.55298326 4.62372511,4.49360705 4.58070485,4.50318238 C4.53782203,4.51266608 4.49466432,4.60118062 4.42768282,4.64667489 L4.46351013,4.71842115 C4.46351013,4.71842115 4.50414802,4.6993163 4.53525639,4.72080352 C4.56636476,4.74233656 4.57589427,4.75663084 4.62853568,4.75663084 L4.66202643,4.77101674 C4.66202643,4.77101674 4.65006872,4.84752775 4.70028194,4.88340088 C4.70028194,4.88340088 4.64292159,4.95752952 4.65006872,4.96944141 C4.65721586,4.98139912 4.70509251,5.07225022 4.72419736,5.12484581 L4.76726344,5.04352423 C4.76726344,5.04352423 4.70266432,4.98616388 4.71466784,4.97892511 C4.72662555,4.97177797 4.76969163,4.96220264 4.76245286,4.9430978 C4.75530573,4.92399295 4.79594361,4.94548018 4.84134626,4.95267313 C4.84134626,4.95267313 4.84372863,5.02441938 4.85330396,5.03399471 C4.8628793,5.04357004 4.87721938,5.08177974 4.874837,5.12246344 C4.87245463,5.16310132 4.8365815,5.17505903 4.8365815,5.17505903 L4.90118062,5.19416388 C4.90118062,5.19416388 4.91790308,5.17024846 4.92986079,5.17263084 C4.92986079,5.17263084 4.92509604,4.97420617 4.95139383,4.9430978 C4.95139383,4.9430978 5.10679824,4.97420617 5.17849868,4.93595066 C5.17849868,4.93595066 5.18766167,4.94749604 5.20557533,4.95849163 C5.19842819,4.97516828 5.1923348,4.9917533 5.19503789,4.99660969 C5.20103965,5.00742203 5.22023612,5.00623084 5.2250467,4.99422731 C5.2268793,4.98969163 5.22967401,4.980437 5.23246872,4.97081586 C5.24112775,4.97365639 5.25061145,4.97590132 5.26151542,4.97700088 C5.26050749,4.99211982 5.26037004,5.00604758 5.26385198,5.00925463 C5.27287753,5.01759295 5.290837,5.01044581 5.29161586,4.99757181 C5.29189075,4.99340264 5.2917533,4.98543084 5.29147841,4.97690925 C5.30384846,4.97590132 5.31699736,4.9737022 5.33156652,4.96939559 L5.25024493,5.10331278 L5.20960705,5.12003524 L5.26220264,5.14633304 L5.30998767,5.12722819 C5.30998767,5.12722819 5.35543612,5.01241586 5.42951894,4.97901674 C5.42951894,4.97901674 5.47973216,5.09854802 5.41756123,5.16310132 L5.47253921,5.19420969 L5.498837,5.1391859 C5.498837,5.1391859 5.48926167,5.03161233 5.5251348,4.96229427 L5.48206872,4.85943965 Z" id="Path" fill="#FF4B55"></path>
                        <g id="Group" transform="translate(4.503965, 4.370044)" fill="#4173CD">
                            <path d="M0.108063436,0.169684211 C0.108063436,0.169684211 0.0735897519,0.143526316 0.0649713309,0.109052632 C0.0563529098,0.0745789474 0.045958173,0.0594210526 0.00806343612,0.0497894737 C0.00806343612,0.0497894737 0.032208173,0.0718421053 0.0287871203,0.106263158 C0.0253660677,0.140684211 0.0287871203,0.187631579 0.0528660677,0.202736842 L0.108063436,0.169684211 Z" id="Path"></path>
                            <path d="M0.286572687,0.266894737 C0.286572687,0.266894737 0.253952423,0.394368421 0.158061674,0.460578947 L0.124570925,0.444052632 C0.124570925,0.444052632 0.226921586,0.343578947 0.23938326,0.257263158 L0.286572687,0.266894737 Z" id="Path"></path>
                            <path d="M0.123387679,0.2 C0.118958383,0.195947368 0.177543206,0.180684211 0.163605687,0.139368421 C0.149668169,0.098 0.149668169,0.0676842105 0.177543206,0.0484210526 C0.177543206,0.0484210526 0.180614184,0.0828947368 0.202288207,0.104894737 C0.223903171,0.126947368 0.2363052,0.182105263 0.200752717,0.213789474 C0.200752717,0.213789474 0.165141177,0.238578947 0.123387679,0.2 Z" id="Path"></path>
                            <path d="M0.128556828,0.575842105 L0.128556828,0.575842105 C0.122829956,0.572631579 0.120447577,0.564578947 0.123288106,0.558 L0.137765639,0.524105263 C0.14624141,0.504263158 0.140651982,0.479578947 0.12397533,0.468526316 C0.105649339,0.456421053 0.0825585903,0.464789474 0.0734872247,0.486157895 L0.0584140969,0.521368421 C0.0556193833,0.527947368 0.0486096916,0.530684211 0.0428828194,0.527421053 L0.0338572687,0.548526316 C0.0338572687,0.548526316 0.0471436123,0.556 0.0632246696,0.565105263 L0.0628581498,0.565894737 C0.0591929515,0.574421053 0.06230837,0.584789474 0.0697303965,0.589 C0.0771524229,0.593210526 0.0861779736,0.589631579 0.0898431718,0.581105263 L0.0901638767,0.580315789 C0.106244934,0.589368421 0.119531278,0.596894737 0.119531278,0.596894737 L0.128556828,0.575842105 Z" id="Path"></path>
                            <polygon id="Path" points="0.260551506 0.808 0.320232599 0.816263158 0.270498355 0.922421053 0.220232599 0.867052632"></polygon>
                            <polygon id="Path" points="0.335930746 0.928360526 0.310533921 1.01306053 0.41032228 1.01306053 0.410533921 0.970060526"></polygon>
                            <polygon id="Path" points="0.760102203 0.91519607 0.760102203 0.963842105 0.660102203 0.963842105 0.70841996 0.863842105"></polygon>
                            <polygon id="Path" points="0.913550661 0.911 0.865124229 1.011 0.96701674 1.011 0.968574449 0.975083176"></polygon>
                        </g>
                        <path d="M5.48206872,5.60856035 L5.48921586,5.50336916 C5.48921586,5.50336916 5.58249515,5.43643348 5.53700088,5.37426256 C5.49155242,5.31209163 5.43900264,5.30013392 5.32900088,5.31447401 C5.21899912,5.32885991 5.04687225,5.32643172 4.97278943,5.33119648 C4.89866079,5.33600705 4.86040529,5.37659912 4.74325639,5.34315419 L4.77436476,5.27140793 C4.77436476,5.27140793 4.71938678,5.27617269 4.68589604,5.29294097 C4.66761586,5.30210396 4.62372511,5.24272775 4.58070485,5.25230308 C4.53782203,5.26178678 4.49466432,5.35030132 4.42768282,5.39579559 L4.46351013,5.46754185 C4.46351013,5.46754185 4.50414802,5.448437 4.53525639,5.46992423 C4.56636476,5.49145727 4.57589427,5.50575154 4.62853568,5.50575154 L4.66202643,5.52013744 C4.66202643,5.52013744 4.65006872,5.59664846 4.70028194,5.63252159 C4.70028194,5.63252159 4.64292159,5.70665022 4.65006872,5.71856211 C4.65721586,5.73051982 4.70509251,5.82137093 4.72419736,5.87401233 L4.76726344,5.79269075 C4.76726344,5.79269075 4.70266432,5.7353304 4.71466784,5.72818326 C4.72662555,5.72103612 4.76969163,5.71146079 4.76245286,5.69235595 C4.75530573,5.6732511 4.79594361,5.69473833 4.84134626,5.70193128 C4.84134626,5.70193128 4.84372863,5.77367753 4.85330396,5.78325286 C4.8628793,5.79282819 4.87721938,5.83103789 4.874837,5.87172159 C4.87245463,5.91235947 4.8365815,5.92431718 4.8365815,5.92431718 L4.90118062,5.94342203 C4.90118062,5.94342203 4.91790308,5.91950661 4.92986079,5.92188899 C4.92986079,5.92188899 4.92509604,5.72346432 4.95139383,5.69235595 C4.95139383,5.69235595 5.10679824,5.72346432 5.17849868,5.68520881 C5.17849868,5.68520881 5.18766167,5.69675419 5.20557533,5.70774978 C5.19842819,5.72442643 5.1923348,5.74101145 5.19503789,5.74586784 C5.20103965,5.75668018 5.22023612,5.75548899 5.2250467,5.74348546 C5.2268793,5.73894978 5.22967401,5.72969515 5.23246872,5.72007401 C5.24112775,5.72296035 5.25061145,5.72515947 5.26151542,5.72625903 C5.26050749,5.74137797 5.26037004,5.75530573 5.26385198,5.75851278 C5.27287753,5.7668511 5.290837,5.75970396 5.29161586,5.74682996 C5.29189075,5.74266079 5.2917533,5.73468899 5.29147841,5.7261674 C5.30384846,5.72511366 5.31699736,5.72296035 5.33156652,5.71865374 L5.25024493,5.85257093 L5.20960705,5.86929339 L5.26220264,5.89559119 L5.30998767,5.87648634 C5.30998767,5.87648634 5.35543612,5.76167401 5.42951894,5.72827489 C5.42951894,5.72827489 5.47973216,5.84780617 5.41756123,5.91235947 L5.47253921,5.94346784 L5.498837,5.88848987 C5.498837,5.88848987 5.48926167,5.7809163 5.5251348,5.71159824 L5.48206872,5.60856035 Z" id="Path" fill="#FF4B55"></path>
                        <g id="Group" transform="translate(4.503965, 5.148899)" fill="#4173CD">
                            <path d="M0.108063436,0.143055556 C0.108063436,0.143055556 0.0735897519,0.115444444 0.0649713309,0.0790555556 C0.0563529098,0.0426666667 0.045958173,0.0266111111 0.00806343612,0.0165 C0.00806343612,0.0165 0.032208173,0.0397777778 0.0287871203,0.0761111111 C0.0253660677,0.1125 0.0287871203,0.162 0.0528660677,0.177944444 L0.108063436,0.143055556 Z" id="Path"></path>
                            <path d="M0.286572687,0.245666667 C0.286572687,0.245666667 0.253952423,0.380222222 0.158061674,0.450111111 L0.124570925,0.432666667 C0.124570925,0.432666667 0.226921586,0.326611111 0.23938326,0.2355 L0.286572687,0.245666667 Z" id="Path"></path>
                            <path d="M0.123387631,0.175111111 C0.118959218,0.170833333 0.177532361,0.154722222 0.163597621,0.111111111 C0.149662882,0.0674444444 0.149662882,0.0354444444 0.177532361,0.0151111111 C0.177532361,0.0151111111 0.180602727,0.0515 0.202272428,0.0747222222 C0.223942129,0.0979444444 0.236282639,0.156222222 0.200737245,0.189666667 C0.200737245,0.189666667 0.165132804,0.215833333 0.123387631,0.175111111 Z" id="Path"></path>
                            <path d="M0.128556828,0.571833333 L0.128556828,0.571833333 C0.122829956,0.568444444 0.120447577,0.559944444 0.123288106,0.553 L0.137765639,0.517222222 C0.14624141,0.496277778 0.140651982,0.470222222 0.12397533,0.458555556 C0.105649339,0.445777778 0.0825585903,0.454611111 0.0734872247,0.477166667 L0.0584140969,0.514333333 C0.0556193833,0.521277778 0.0486096916,0.524166667 0.0428828194,0.520722222 L0.0338572687,0.543 C0.0338572687,0.543 0.0471436123,0.550888889 0.0632246696,0.5605 L0.0628581498,0.561333333 C0.0591929515,0.570333333 0.06230837,0.581277778 0.0697303965,0.585722222 C0.0771524229,0.590166667 0.0861779736,0.586444444 0.0898431718,0.577388889 L0.0901638767,0.576555556 C0.106244934,0.586111111 0.119531278,0.594055556 0.119531278,0.594055556 L0.128556828,0.571833333 Z" id="Path"></path>
                            <polygon id="Path" points="0.260551506 0.816833333 0.320232599 0.825611111 0.270498355 0.937666667 0.220232599 0.879222222"></polygon>
                            <polygon id="Path" points="0.335930746 0.943433333 0.310533921 1.02823333 0.41032228 1.02823333 0.410533921 0.985233333"></polygon>
                            <polygon id="Path" points="0.760102203 0.927082126 0.760102203 0.975777778 0.660102203 0.975777778 0.70841996 0.875777778"></polygon>
                            <polygon id="Path" points="0.913550661 0.925555556 0.865124229 1.02555556 0.96701674 1.02555556 0.968574449 0.989672647"></polygon>
                        </g>
                    </g>
                </g>
            </g>
        </g>
    </g>
</svg>