<?xml version="1.0" encoding="UTF-8"?>
<svg width="27px" height="26px" viewBox="0 0 27 26" version="1.1" xmlns="http://www.w3.org/2000/svg" xmlns:xlink="http://www.w3.org/1999/xlink">
    <!-- Generator: sketchtool 61 (101010) - https://sketch.com -->
    <title>539683F2-D43B-4FA0-83DA-69AE439D3871</title>
    <desc>Created with sketchtool.</desc>
    <g id="Page-1" stroke="none" stroke-width="1" fill="none" fill-rule="evenodd">
        <g id="HCP-User-list-page_Applications" transform="translate(-1442.000000, -156.000000)" fill-rule="nonzero">
            <g id="Group-11-Copy" transform="translate(1413.000000, 31.000000)">
                <g id="Group-8-Copy-7">
                    <g id="Group-8-Copy" transform="translate(0.000000, 40.000000)">
                        <g id="Group-26" transform="translate(29.000000, 12.000000)">
                            <g id="Group-25">
                                <g id="Group-21" transform="translate(0.000000, 73.000000)">
                                    <g id="flag-(2)">
                                        <path d="M0.820795491,17.5217148 C2.68533067,22.4720742 7.52231773,26 13.1962347,26 C18.8701517,26 23.7071388,22.4720742 25.571674,17.5217148 L13.1962347,16.3913242 L0.820795491,17.5217148 Z" id="Path" fill="#FFDA44"></path>
                                        <path d="M13.1962347,0 C7.52231773,0 2.68533067,3.527875 0.820795491,8.47828516 L13.1962347,9.60867578 L25.571674,8.47823438 C23.7071388,3.527875 18.8701517,0 13.1962347,0 Z" id="Path" fill="#000000"></path>
                                        <path d="M0.820795491,8.47828516 C0.290368712,9.88660156 0,11.4098359 0,13 C0,14.5901641 0.290368712,16.1133984 0.820795491,17.5217148 L25.5717255,17.5217148 C26.1021523,16.1133984 26.3924695,14.5901641 26.3924695,13 C26.3924695,11.4098359 26.1021523,9.88660156 25.571674,8.47828516 L0.820795491,8.47828516 Z" id="Path" fill="#D80027"></path>
                                    </g>
                                </g>
                            </g>
                        </g>
                    </g>
                </g>
            </g>
        </g>
    </g>
</svg>