<?xml version="1.0" encoding="UTF-8"?>
<svg width="27px" height="26px" viewBox="0 0 27 26" version="1.1" xmlns="http://www.w3.org/2000/svg" xmlns:xlink="http://www.w3.org/1999/xlink">
    <!-- Generator: sketchtool 61 (101010) - https://sketch.com -->
    <title>38D0D7AB-13A6-4C9E-8A6A-A47DBB80DFE0</title>
    <desc>Created with sketchtool.</desc>
    <g id="Page-1" stroke="none" stroke-width="1" fill="none" fill-rule="evenodd">
        <g id="HCP-User-list-page_Applications" transform="translate(-1443.000000, -229.000000)" fill-rule="nonzero">
            <g id="Group-11-Copy" transform="translate(1413.000000, 31.000000)">
                <g id="Group-8-Copy-7">
                    <g id="Group-8-Copy" transform="translate(0.000000, 40.000000)">
                        <g id="Group-26" transform="translate(29.000000, 12.000000)">
                            <g id="Group-25">
                                <g id="Group-15" transform="translate(1.015095, 146.000000)">
                                    <g id="spain">
                                        <path d="M0,13 C0,14.5901641 0.290368712,16.1133984 0.820795491,17.5217148 L13.1962347,18.6521563 L25.571674,17.5217148 C26.1021008,16.1133984 26.3924695,14.5901641 26.3924695,13 C26.3924695,11.4098359 26.1021008,9.88660156 25.571674,8.47828516 L13.1962347,7.34784375 L0.820795491,8.47828516 C0.290368712,9.88660156 0,11.4098359 0,13 Z" id="Path" fill="#FFDA44"></path>
                                        <g id="Group" transform="translate(0.773217, 0.000000)" fill="#D80027">
                                            <path d="M24.7984571,8.47828516 C22.9339219,3.52792578 18.0969349,0 12.4230179,0 C6.74910085,0 1.91211379,3.52792578 0.047578612,8.47828516 L24.7984571,8.47828516 Z" id="Path"></path>
                                            <path d="M0.047578612,17.5217148 C1.91211379,22.4720742 6.74910085,26 12.4230179,26 C18.0969349,26 22.9339219,22.4720742 24.7984571,17.5217148 L0.047578612,17.5217148 Z" id="Path"></path>
                                        </g>
                                    </g>
                                </g>
                            </g>
                        </g>
                    </g>
                </g>
            </g>
        </g>
    </g>
</svg>